<?xml version="1.0" encoding="utf-8"?>
<!-- Generator: Adobe Illustrator 18.0.0, SVG Export Plug-In . SVG Version: 6.00 Build 0)  -->
<!DOCTYPE svg PUBLIC "-//W3C//DTD SVG 1.1//EN" "http://www.w3.org/Graphics/SVG/1.1/DTD/svg11.dtd">
<svg version="1.1" id="Layer_1" xmlns="http://www.w3.org/2000/svg" xmlns:xlink="http://www.w3.org/1999/xlink" x="0px" y="0px"
	 viewBox="0 0 4392.3 3512.5" enable-background="new 0 0 4392.3 3512.5" xml:space="preserve">
<linearGradient id="SVGID_1_" gradientUnits="userSpaceOnUse" x1="391.2939" y1="3043.7976" x2="659.1707" y2="3043.7976">
	<stop  offset="0" style="stop-color:#FFF875"/>
	<stop  offset="1" style="stop-color:#C99862"/>
</linearGradient>
<circle fill="url(#SVGID_1_)" cx="525.2" cy="3043.8" r="133.9"/>
<linearGradient id="SVGID_2_" gradientUnits="userSpaceOnUse" x1="348.5957" y1="566.7283" x2="616.4725" y2="566.7283">
	<stop  offset="0" style="stop-color:#8E75FF"/>
	<stop  offset="1" style="stop-color:#6269C9"/>
</linearGradient>
<circle fill="url(#SVGID_2_)" cx="482.5" cy="566.7" r="133.9"/>
<linearGradient id="SVGID_3_" gradientUnits="userSpaceOnUse" x1="4124.4404" y1="1818.6879" x2="4392.3174" y2="1818.6879">
	<stop  offset="0" style="stop-color:#FF7886"/>
	<stop  offset="1" style="stop-color:#A1555B"/>
</linearGradient>
<circle fill="url(#SVGID_3_)" cx="4258.4" cy="1818.7" r="133.9"/>
<linearGradient id="SVGID_4_" gradientUnits="userSpaceOnUse" x1="1251.6434" y1="1379.9154" x2="1460.8815" y2="1379.9154" gradientTransform="matrix(0.7071 0.7071 -0.7071 0.7071 164.6771 443.8791)">
	<stop  offset="0" style="stop-color:#8E75FF"/>
	<stop  offset="1" style="stop-color:#6269C9"/>
</linearGradient>
<polygon fill="url(#SVGID_4_)" points="148,2526.6 0,2378.6 148,2230.7 295.9,2378.6 "/>
<linearGradient id="SVGID_5_" gradientUnits="userSpaceOnUse" x1="2605.1597" y1="-2353.4631" x2="2814.3977" y2="-2353.4631" gradientTransform="matrix(0.7071 0.7071 -0.7071 0.7071 164.6771 443.8791)">
	<stop  offset="0" style="stop-color:#FFF875"/>
	<stop  offset="1" style="stop-color:#C99862"/>
</linearGradient>
<polygon fill="url(#SVGID_5_)" points="3744.9,843.8 3596.9,695.8 3744.9,547.9 3892.8,695.8 "/>
<linearGradient id="SVGID_6_" gradientUnits="userSpaceOnUse" x1="550.6975" y1="1681.8871" x2="812.282" y2="1681.8871" gradientTransform="matrix(0.978 -0.2086 0.2086 0.978 48.0292 -193.1871)">
	<stop  offset="0" style="stop-color:#FF7886"/>
	<stop  offset="1" style="stop-color:#A1555B"/>
</linearGradient>
<polygon fill="url(#SVGID_6_)" points="1041.7,1198.8 1129.3,1295.9 1216.9,1393 1089,1420.3 961.1,1447.6 1001.4,1323.2 "/>
<linearGradient id="SVGID_7_" gradientUnits="userSpaceOnUse" x1="504.9156" y1="3783.5059" x2="766.5001" y2="3783.5059" gradientTransform="matrix(0.978 -0.2086 0.2086 0.978 48.0292 -193.1871)">
	<stop  offset="0" style="stop-color:#8E75FF"/>
	<stop  offset="1" style="stop-color:#6269C9"/>
</linearGradient>
<polygon fill="url(#SVGID_7_)" points="1435.4,3263.7 1523,3360.8 1610.5,3458 1482.6,3485.2 1354.7,3512.5 1395,3388.1 "/>
<g>
	
		<linearGradient id="SVGID_8_" gradientUnits="userSpaceOnUse" x1="2922.9126" y1="4059.9348" x2="3184.4971" y2="4059.9348" gradientTransform="matrix(0.978 -0.2086 0.2086 0.978 48.0292 -193.1871)">
		<stop  offset="0" style="stop-color:#FFF875"/>
		<stop  offset="1" style="stop-color:#C99862"/>
	</linearGradient>
	<polygon fill="url(#SVGID_8_)" points="3857.8,3029.6 3945.4,3126.8 4033,3223.9 3905.1,3251.2 3777.2,3278.5 3817.5,3154.1 	"/>
	<path fill="#E3DFEA" d="M4010.7,2513l64-195.1l-217.3,1.4l-1421.6-820.7c-59-34.1-131.8-34.1-190.8,0L789.6,2338.9l-183.5,1.2
		l28.2,155.7c-0.2,2.6-0.2,5.2,0,7.7c1.2,19.5,11.5,38.5,30.8,49.7l1605.8,924.6c21.5,12.4,45.5,18.6,69.5,18.6s48-6.2,69.5-18.6
		l1569.9-907c19.2-11.1,29.6-30,30.8-49.5v-0.2C4010.9,2518.4,4010.9,2515.7,4010.7,2513z"/>
	<path fill="#7B5BAA" d="M2340.4,3225.3v112.2c-24,0-48-6.2-69.5-18.6L637,2375.6c-20.6-11.9-31-32.8-31-53.7v-108.2h0.1
		c1.2,19.5,11.5,38.5,30.8,49.7l1634,943.4C2292.4,3219.1,2316.4,3225.3,2340.4,3225.3z"/>
	<path fill="#634D99" d="M4043.9,2375.6L2410,3319c-21.5,12.4-45.5,18.6-69.5,18.6v-112.2c24,0,48-6.2,69.5-18.6l1633.9-943.4
		c19.2-11.1,29.6-30,30.8-49.5v104C4076.2,2340.1,4065.9,2362.9,4043.9,2375.6z"/>
	<path fill="#7B5BAA" d="M4074.8,2213.7v0.2c-1.3,19.4-11.6,38.4-30.8,49.5L2410,3206.7c-21.5,12.4-45.5,18.6-69.5,18.6
		s-48-6.2-69.5-18.6L637,2263.4c-19.3-11.1-29.6-30.2-30.8-49.7h125.4L2245,1339.9c59-34.1,131.8-34.1,190.8,0l1513.5,873.9H4074.8z
		"/>
	<linearGradient id="SVGID_9_" gradientUnits="userSpaceOnUse" x1="605.9935" y1="2213.7" x2="4074.8914" y2="2213.7">
		<stop  offset="0" style="stop-color:#6A5EBF"/>
		<stop  offset="1" style="stop-color:#6E3AA5"/>
	</linearGradient>
	<path fill="url(#SVGID_9_)" d="M4074.8,2213.7v0.2c-1.3,19.4-11.6,38.4-30.8,49.5L2410,3206.7c-21.5,12.4-45.5,18.6-69.5,18.6
		s-48-6.2-69.5-18.6L637,2263.4c-19.3-11.1-29.6-30.2-30.8-49.7c-1.4-22.2,8.9-45,30.8-57.7L2245,1227.6c59-34.1,131.8-34.1,190.8,0
		l1608,928.4C4065.9,2168.7,4076.2,2191.5,4074.8,2213.7z"/>
	<path fill="#BF89EF" d="M2340.4,3343.8c-25.5,0-50.6-6.7-72.6-19.5L633.9,2381c-21.3-12.3-34.1-34.4-34.1-59.1v-111.7
		c0-0.4,0-0.8,0-1.2l0-1.6c0.7-23.6,13.4-44.9,34-56.9l1608.1-928.4c60.8-35.1,136.3-35.1,197.1,0l1608,928.4
		c22.6,13,35.6,37.3,34,63.3v103.8c1.6,26-11.4,50.2-34,63.3l-1633.9,943.4C2391,3337.1,2365.9,3343.8,2340.4,3343.8z M612.2,2219.9
		v102c0,20.2,10.4,38.2,27.9,48.3l1634,943.4c20.1,11.6,43.1,17.8,66.4,17.8c23.3,0,46.3-6.2,66.4-17.8l1633.9-943.4
		c18.5-10.7,29.1-30.6,27.8-51.9l0-0.4v-90.8l-2.4-0.7c1.3-4.1,2.1-8.4,2.4-12.7l0-0.4c1.4-21.3-9.3-41.2-27.8-51.9l-1608-928.4
		c-56.9-32.9-127.7-32.9-184.6,0L640.1,2161.4c-18.5,10.7-29.1,30.6-27.7,51.9l0.4,6.6H612.2z M2340.4,3231.6v-12.4
		c11.5,0,23-1.5,34.1-4.4l3.2,12C2365.6,3229.9,2353,3231.6,2340.4,3231.6z"/>
	<linearGradient id="SVGID_10_" gradientUnits="userSpaceOnUse" x1="1532.5853" y1="2304.8474" x2="3133.4583" y2="2304.8474">
		<stop  offset="0" style="stop-color:#2E256B"/>
		<stop  offset="1" style="stop-color:#5A3087"/>
	</linearGradient>
	<path fill="url(#SVGID_10_)" d="M2943.3,2005.8c-14-9.5-28.7-18.7-44.2-27.7c-312.6-180.5-819.4-180.5-1132,0
		c-15.5,9-30.3,18.2-44.2,27.7h-190.2v299.1h0c0,118.3,78.1,236.5,234.4,326.8c312.6,180.5,819.4,180.5,1132,0
		c156.3-90.2,234.4-208.5,234.4-326.8v-299.1H2943.3z"/>
	<g>
		<path fill="#FF9D4D" d="M3133.4,2012v156.9c0,0,0,0,0,0v21.7h-0.8c-3.7,45.2-18.8,90.3-45.5,133.4c-3.1,5.1-6.4,10.1-9.8,15.1
			c-32.2,47-78.3,91.5-138.4,131.5c-3.2,2.1-6.5,4.3-9.8,6.4c-9.6,6.1-19.5,12.2-29.8,18.1c-34.1,19.7-70.4,37.2-108.6,52.6
			c-3.3,1.3-6.5,2.6-9.8,3.8c-44.1,17.2-90.4,31.6-138.4,43.1c-3.3,0.8-6.5,1.6-9.8,2.4c-45,10.5-91.4,18.4-138.4,23.9
			c-3.3,0.4-6.5,0.8-9.8,1.1c-45.7,5.1-92,7.8-138.4,8.1c-3.3,0-6.5,0.1-9.8,0.1c-46.3,0.1-92.6-2.1-138.4-6.8
			c-3.3-0.3-6.5-0.6-9.8-1c-46.9-5-93.3-12.4-138.4-22.3c-3.3-0.7-6.5-1.4-9.8-2.2c-47.8-10.9-94.2-24.6-138.4-41
			c-3.3-1.2-6.6-2.4-9.8-3.7c-43.5-16.6-84.6-36-122.9-58.2c-5.2-3-10.4-6.1-15.4-9.2c-3.3-2-6.6-4-9.8-6
			c-58.4-36.9-104.6-77.9-138.4-121.4c-3.4-4.3-6.7-8.7-9.8-13.1c-35.6-49.6-55.6-102.1-59.8-155h-0.9V2012h47.5
			c4.1-6.6,8.5-13.2,13.2-19.7c3.1-4.4,6.4-8.8,9.8-13.1c12.4-16,26.6-31.6,42.3-46.9c19.3-18.6,41.1-36.7,65.4-54
			c17.3-12.3,36-24.3,55.9-35.8c312.1-180.2,818.2-180.2,1130.3,0c19.9,11.5,38.5,23.4,55.8,35.8c24.3,17.3,46.1,35.3,65.4,54
			c22.2,21.4,41.1,43.7,56.7,66.5c3,4.4,5.9,8.8,8.7,13.2H3133.4z"/>
		<g>
			<path fill="#FFE840" d="M2334.2,1717.2c211.8,0,410.8,47.5,560.3,133.8c19.5,11.2,38,23.1,55.1,35.3c23.7,16.8,45.3,34.7,64.3,53
				c21.4,20.7,40.1,42.5,55.4,65c2.8,4,5.5,8.2,8.4,12.8l2.9,4.6h5.4h37.7v147.1v11.9h-0.1l-0.7,9c-3.6,44.1-18.4,87.5-44.1,129.1
				c-2.8,4.6-6,9.6-9.6,14.7c-32.3,47-77.9,90.4-135.7,128.9c-3.2,2.1-6.4,4.2-9.6,6.3c-9.4,6-19.3,12-29.4,17.9
				c-33.1,19.1-69.2,36.6-107.3,51.9c-3.2,1.3-6.5,2.6-9.7,3.8c-43.3,16.9-89.4,31.3-137.3,42.7c-3.2,0.8-6.4,1.6-9.5,2.3
				c-44.1,10.2-90.3,18.2-137.4,23.7c-3.2,0.4-6.4,0.8-9.7,1.1c-45.3,5-91.5,7.7-137.4,8.1c-3.2,0-6.4,0.1-9.7,0.1l-2.7,0
				c-45.2,0-90.5-2.3-134.9-6.7c-3.1-0.3-6.3-0.6-9.6-1c-46.6-4.9-92.7-12.4-137.3-22.1c-3.2-0.7-6.4-1.4-9.7-2.2
				c-47.9-10.9-94-24.6-137.2-40.7l-1.2-0.4c-2.8-1-5.6-2.1-8.5-3.2c-43.3-16.6-84.1-35.9-121.5-57.5c-5.2-3-10.2-6-15.3-9.1
				c-3.3-2-6.5-4-9.6-5.9c-56.3-35.6-102.1-75.7-136-119.2c-3-3.8-6.1-7.9-9.5-12.7c-34.3-47.8-53.8-98.3-58-150.1l-0.7-9h-0.1v-159
				h37.7h5.4l2.9-4.6c3.9-6.3,8.3-12.8,12.9-19.2c2.9-4,6-8.2,9.5-12.7c12.1-15.6,26-31,41.4-45.9c19.2-18.6,40.9-36.4,64.3-53
				c17.3-12.3,35.8-24.2,55.1-35.3C1923.4,1764.7,2122.4,1717.2,2334.2,1717.2L2334.2,1717.2z M2334.2,1707.4
				c-204.5,0-409.1,45-565.1,135.1c-19.9,11.5-38.5,23.5-55.9,35.8c-24.3,17.3-46.1,35.3-65.4,54c-15.8,15.2-29.9,30.9-42.3,46.9
				c-3.4,4.3-6.7,8.7-9.8,13.1c-4.7,6.5-9.1,13.1-13.2,19.7H1535v178.6h0.9c4.2,52.8,24.2,105.4,59.8,155c3.1,4.4,6.3,8.7,9.8,13.1
				c33.8,43.5,80,84.5,138.4,121.4c3.2,2,6.5,4,9.8,6c5.1,3.1,10.2,6.1,15.4,9.2c38.3,22.1,79.5,41.5,122.9,58.2
				c3.2,1.3,6.5,2.5,9.8,3.7c44.2,16.4,90.6,30.1,138.4,41c3.3,0.8,6.5,1.5,9.8,2.2c45.1,9.9,91.4,17.3,138.4,22.3
				c3.3,0.4,6.5,0.7,9.8,1c44.9,4.5,90.3,6.8,135.7,6.8c0.9,0,1.8,0,2.7,0c3.3,0,6.5,0,9.8-0.1c46.4-0.4,92.7-3.1,138.4-8.1
				c3.3-0.3,6.5-0.7,9.8-1.1c47-5.5,93.4-13.5,138.4-23.9c3.3-0.8,6.5-1.5,9.8-2.4c47.9-11.5,94.3-25.9,138.4-43.1
				c3.3-1.3,6.5-2.5,9.8-3.8c38.2-15.4,74.6-32.9,108.6-52.6c10.3-5.9,20.2-12,29.8-18.1c3.3-2.1,6.6-4.3,9.8-6.4
				c60-40,106.1-84.5,138.4-131.5c3.4-5,6.7-10.1,9.8-15.1c26.6-43.2,41.8-88.2,45.5-133.4h0.8v-21.7c0,0,0,0,0,0V2012H3086
				c-2.8-4.4-5.6-8.8-8.7-13.2c-15.6-22.8-34.5-45.1-56.7-66.5c-19.3-18.7-41.1-36.7-65.4-54c-17.3-12.4-35.9-24.3-55.8-35.8
				C2743.3,1752.5,2538.8,1707.4,2334.2,1707.4L2334.2,1707.4z"/>
		</g>
		<path fill="#FFE840" d="M2899.4,1680.8c312.1,180.2,312.1,472.4,0,652.6c-312.1,180.2-818.2,180.2-1130.3,0
			c-312.1-180.2-312.1-472.4,0-652.6S2587.2,1500.6,2899.4,1680.8z"/>
		<g>
			<path fill="#FF9D4D" d="M3020.6,1932.3c-25.6-79.2-91.8-152.1-192.6-210.3c-131.9-76.2-307.3-118.1-493.8-118.1
				c-186.5,0-361.9,41.9-493.8,118.1c-100.8,58.2-167.1,131.1-192.7,210.3c-7.9,24.4-11.9,49.4-11.9,74.7
				c0,77.5,37.6,151.7,108,215.6c3.2,3,6.4,5.8,9.8,8.6c25.2,21.7,54.2,42,86.8,60.9c16.5,9.5,33.7,18.6,51.5,27
				c3.3,1.6,6.5,3.1,9.8,4.6c43,19.7,89.4,36.2,138.4,49.3c3.3,0.9,6.5,1.8,9.8,2.6c44.3,11.4,90.6,20.1,138.4,25.8
				c3.3,0.4,6.5,0.8,9.8,1.2c44.3,5.1,89.9,7.6,136.1,7.6h2.3c3.3,0,6.5,0,9.8-0.1c47.1-0.4,93.3-3.5,138.4-9.3
				c3.3-0.4,6.5-0.8,9.8-1.3c47.8-6.4,94.2-15.8,138.4-27.8c3.3-0.9,6.6-1.8,9.8-2.8c49.2-13.9,95.6-31.4,138.4-52
				c3.3-1.5,6.6-3.1,9.8-4.8c12.7-6.3,25.2-13,37.2-20c39-22.5,72.9-47.3,101.2-73.7c3.4-3.1,6.6-6.3,9.8-9.4
				c61-60.7,93.6-129.9,93.6-202C3032.5,1981.7,3028.5,1956.7,3020.6,1932.3z M2938.9,2159.5c-3.1,4.2-6.4,8.3-9.8,12.4
				c-31.4,37.8-74.2,73.2-128.3,104.5c-3.3,1.9-6.7,3.8-10.1,5.7c-3.2,1.8-6.5,3.6-9.8,5.3c-42.6,22.7-89.1,41.5-138.4,56.5
				c-3.2,1-6.5,2-9.8,2.9c-44.4,13-90.9,22.9-138.4,29.7c-3.2,0.5-6.5,0.9-9.8,1.3c-45.5,6.1-91.9,9.4-138.4,9.9
				c-3.3,0-6.5,0.1-9.8,0.1c-46.4,0.1-92.8-2.6-138.4-8.1c-3.3-0.4-6.6-0.8-9.8-1.3c-47.4-6.1-93.8-15.3-138.4-27.6
				c-3.3-0.9-6.6-1.8-9.8-2.7c-49-14-95.5-31.8-138.4-53.3c-3.3-1.7-6.6-3.3-9.8-5c-8.3-4.3-16.4-8.8-24.4-13.4
				c-46.4-26.8-84.4-56.5-114-88.2c-3.4-3.6-6.6-7.2-9.8-10.9c-80.6-93.3-90.8-201.8-30.7-299c31.8-51.4,83.3-99.6,154.4-140.7
				c257.3-148.5,675.9-148.5,933.2,0c71.2,41.1,122.6,89.3,154.4,140.7C3011.5,1969.4,3006.1,2070.4,2938.9,2159.5z"/>
		</g>
		<g>
			<path fill="#D1975D" d="M2359.8,1942l75.3,43.5c-1.7,0.8-3.4,1.7-5,2.6l-41.3,23.8l-70.3-40.6l23.2-13.4
				C2349.9,1953.1,2356,1947.8,2359.8,1942z"/>
			<path fill="#FF9D4D" d="M2584.9,2125.2L2584.9,2125.2l77.1,44.5l46.1-26.6l-77.3-44.6c0.7-0.4,1.4-0.8,2-1.3
				c3.4-2.1,6.7-4.3,9.8-6.5c11-7.7,20.4-15.8,28.4-24.1c12.7-13.3,20.9-26.7,24.5-40.2c3.7-13.5,2.1-26.7-4.8-39.7
				c-6.9-12.9-20-25-39.3-36.2c-2.9-1.7-5.8-3.3-8.7-4.8c-3.2-1.7-6.5-3.3-9.8-4.8c-24.9-11.5-51.4-18.4-79.6-20.6
				c-19.8-1.5-39.4-0.9-58.8,1.7c-3.3,0.4-6.5,1-9.8,1.6c-11.8,2.1-23.6,5-35.3,8.6c12-17.9,13.9-35.7,5.5-53.5
				c-8.4-17.7-23.8-33.1-46.1-46c-14.2-8.2-30.8-14.9-49.7-20.1c-18.9-5.2-38.4-8.4-58.4-9.5c-20-1.1-39.9,0-59.7,3.5
				c-19.8,3.5-37.6,9.8-53.6,19l-14.5,8.4l-74.3-42.9l-46.1,26.6l74.3,42.9l-56.1,32.4l0,0l-74.3-42.9l-46.1,26.6l74.3,42.9
				l-82.3,47.5l97.9,56.5l9.8,5.6l138.4,79.9l9.8,5.7l138.4,79.9l9.8,5.7l54,31.2l82.3-47.5l0,0l77.1,44.5l46.1-26.6l-77.1-44.5l0,0
				L2584.9,2125.2z M2430,1988.1c1.7-0.9,3.3-1.8,5-2.6c6.4-3.1,13.5-5.4,21.1-6.8c9.2-1.8,18.7-2.5,28.5-2.1c0.5,0,1,0,1.5,0
				c2.8,0.1,5.5,0.4,8.3,0.6c7.6,0.8,15.2,2.2,22.7,4.2c10.3,2.7,19.6,6.5,27.7,11.2c8.2,4.7,14.4,10.1,18.7,16
				c4.3,6,6.5,12,6.8,18.1c0.2,6.1-1.7,12-5.8,17.9c-2.5,3.5-5.8,6.9-9.8,10c-2,1.6-4.2,3.1-6.6,4.6c-0.7,0.4-1.3,0.8-2,1.2
				l-35.5,20.5l-1.3,0.7l-14.9,8.6l-9.8,5.6l-31.3,18.1l-39.4,22.7l-120.6-69.7l12.9-7.4l26.5-15.3l0,0l3.9-2.2l9.8-5.6l42.4-24.5
				L2430,1988.1z M2188.3,1913.1l9.8-5.7l4.8-2.8l0,0l27.1-15.7c1.6-0.9,3.3-1.6,4.9-2.4c5.5-2.7,11.3-5,17.7-6.5
				c8.8-2.1,18.3-3,28.7-2.9c19.5,0.4,38,5.4,55.2,15.1c0.4,0.2,0.8,0.5,1.3,0.7c3.1,1.8,5.9,3.6,8.5,5.5
				c12.3,8.9,18.4,18.2,18.2,28.2c-0.1,5.4-1.7,10.5-4.7,15.2c-3,4.6-7.6,9-13.5,13c-1.5,1-3,2-4.6,2.9l-5.1,3l-18.1,10.5
				l-56.1,32.4l0,0l-15.3,8.8l-24.1,13.9l-13.4-7.7l-14.9-8.6l-6.3-3.6l-28.2-16.3l-52.6-30.4l14.6-8.4l24.8-14.3l0,0L2188.3,1913.1
				z"/>
		</g>
		<g>
			<g>
				<path fill="#FFE840" d="M1626.3,2217v161.7c-3.4-4.3-6.7-8.7-9.8-13.1v-161.8C1619.7,2208.3,1622.9,2212.6,1626.3,2217z"/>
			</g>
			<g>
				<path fill="#FFE840" d="M1753.6,2324.2V2486c-3.3-2-6.6-4-9.8-6v-161.8C1747.1,2320.2,1750.3,2322.2,1753.6,2324.2z"/>
			</g>
			<g>
				<path fill="#FFE840" d="M1901.8,2395.2V2557c-3.3-1.2-6.6-2.4-9.8-3.7v-161.8C1895.2,2392.8,1898.5,2394,1901.8,2395.2z"/>
			</g>
			<g>
				<path fill="#FFE840" d="M2050,2438.5v161.8c-3.3-0.7-6.5-1.4-9.8-2.2v-161.8C2043.4,2437,2046.7,2437.8,2050,2438.5z"/>
			</g>
			<g>
				<path fill="#FFE840" d="M2198.1,2461.8v161.8c-3.3-0.3-6.5-0.6-9.8-1v-161.8C2191.6,2461.1,2194.8,2461.5,2198.1,2461.8z"/>
			</g>
			<g>
				<path fill="#FFE840" d="M2346.3,2468.4v161.8c-3.3,0-6.5,0.1-9.8,0.1v-161.8C2339.8,2468.5,2343,2468.5,2346.3,2468.4z"/>
			</g>
			<g>
				<path fill="#FFE840" d="M2494.4,2459.2V2621c-3.3,0.4-6.5,0.8-9.8,1.1v-161.8C2487.9,2460,2491.2,2459.6,2494.4,2459.2z"/>
			</g>
			<g>
				<path fill="#FFE840" d="M2642.6,2432.9v161.8c-3.3,0.8-6.5,1.6-9.8,2.4v-161.8C2636.1,2434.5,2639.4,2433.7,2642.6,2432.9z"/>
			</g>
			<g>
				<path fill="#FFE840" d="M2790.8,2386v161.8c-3.3,1.3-6.5,2.6-9.8,3.8v-161.8C2784.2,2388.5,2787.5,2387.3,2790.8,2386z"/>
			</g>
			<g>
				<path fill="#FFE840" d="M2938.9,2308.8v161.8c-3.2,2.1-6.5,4.3-9.8,6.4v-161.8C2932.5,2313.1,2935.7,2311,2938.9,2308.8z"/>
			</g>
			<g>
				<path fill="#FFE840" d="M3070.4,2178.4v161.8c-3.1,5.1-6.4,10.1-9.8,15.1v-161.8C3064,2188.5,3067.2,2183.5,3070.4,2178.4z"/>
			</g>
		</g>
	</g>
	<g opacity="0.25">
		<path fill="#501F59" d="M3132.3,461.4v1279.1c0-118.1-78-236.2-234.1-326.3c-312.1-180.2-818.2-180.2-1130.3,0
			c-156.1,90.1-234.1,208.2-234.1,326.3V461.4c0-104,60.5-208,181.5-292.8c16.4-11.5,34-22.7,52.6-33.5
			C1882,69.2,2022.2,27.4,2169.3,9.7c255-30.7,530.9,11.1,728.9,125.4C3054.2,225.3,3132.3,343.3,3132.3,461.4z"/>
		<path fill="#51205A" d="M3132.3,463v1279.1c0-118.1-78-236.2-234.1-326.3c-312.1-180.2-818.2-180.2-1130.3,0
			c-156.1,90.1-234.1,208.2-234.1,326.3V463c0-104,60.5-208,181.5-292.8c16.4-11.5,34-22.7,52.6-33.5
			C1882,70.8,2022.2,29,2169.3,11.3c255-30.7,530.9,11.1,728.9,125.4C3054.2,226.9,3132.3,345,3132.3,463z"/>
		<path fill="#52205B" d="M3132.3,464.7v1279.1c0-118.1-78-236.2-234.1-326.3c-312.1-180.2-818.2-180.2-1130.3,0
			c-156.1,90.1-234.1,208.2-234.1,326.3V464.7c0-104,60.5-208,181.5-292.8c16.4-11.5,34-22.7,52.6-33.5
			C1882,72.4,2022.2,30.6,2169.3,12.9c255-30.7,530.9,11.1,728.9,125.4C3054.2,228.5,3132.3,346.6,3132.3,464.7z"/>
		<path fill="#52215C" d="M3132.3,466.3v1279.1c0-118.1-78-236.2-234.1-326.3c-312.1-180.2-818.2-180.2-1130.3,0
			c-156.1,90.1-234.1,208.2-234.1,326.3V466.3c0-104,60.5-208,181.5-292.8c16.4-11.5,34-22.7,52.6-33.5
			C1882,74,2022.2,32.2,2169.3,14.5c255-30.7,530.9,11.1,728.9,125.4C3054.2,230.1,3132.3,348.2,3132.3,466.3z"/>
		<path fill="#53215D" d="M3132.3,467.9v1279.1c0-118.1-78-236.2-234.1-326.3c-312.1-180.2-818.2-180.2-1130.3,0
			c-156.1,90.1-234.1,208.2-234.1,326.3V467.9c0-104,60.5-208,181.5-292.8c16.4-11.5,34-22.7,52.6-33.5
			C1882,75.6,2022.2,33.8,2169.3,16.2c255-30.7,530.9,11.1,728.9,125.4C3054.2,231.7,3132.3,349.8,3132.3,467.9z"/>
		<path fill="#54225E" d="M3132.3,469.5v1279.1c0-118.1-78-236.2-234.1-326.3c-312.1-180.2-818.2-180.2-1130.3,0
			c-156.1,90.1-234.1,208.2-234.1,326.3V469.5c0-104,60.5-208,181.5-292.8c16.4-11.5,34-22.7,52.6-33.5
			C1882,77.2,2022.2,35.4,2169.3,17.8c255-30.7,530.9,11.1,728.9,125.4C3054.2,233.3,3132.3,351.4,3132.3,469.5z"/>
		<path fill="#55225F" d="M3132.3,471.1v1279.1c0-118.1-78-236.2-234.1-326.3c-312.1-180.2-818.2-180.2-1130.3,0
			c-156.1,90.1-234.1,208.2-234.1,326.3V471.1c0-104,60.5-208,181.5-292.8c16.4-11.5,34-22.7,52.6-33.5
			C1882,78.9,2022.2,37.1,2169.3,19.4c255-30.7,530.9,11.1,728.9,125.4C3054.2,234.9,3132.3,353,3132.3,471.1z"/>
		<path fill="#562360" d="M3132.3,472.7v1279.1c0-118.1-78-236.2-234.1-326.3c-312.1-180.2-818.2-180.2-1130.3,0
			c-156.1,90.1-234.1,208.2-234.1,326.3V472.7c0-104,60.5-208,181.5-292.8c16.4-11.5,34-22.7,52.6-33.5
			C1882,80.5,2022.2,38.7,2169.3,21c255-30.7,530.9,11.1,728.9,125.4C3054.2,236.5,3132.3,354.6,3132.3,472.7z"/>
		<path fill="#572361" d="M3132.3,474.3v1279.1c0-118.1-78-236.2-234.1-326.3c-312.1-180.2-818.2-180.2-1130.3,0
			c-156.1,90.1-234.1,208.2-234.1,326.3V474.3c0-104,60.5-208,181.5-292.8c16.4-11.5,34-22.7,52.6-33.5
			C1882,82.1,2022.2,40.3,2169.3,22.6c255-30.7,530.9,11.1,728.9,125.4C3054.2,238.1,3132.3,356.2,3132.3,474.3z"/>
		<path fill="#572462" d="M3132.3,475.9V1755c0-118.1-78-236.2-234.1-326.3c-312.1-180.2-818.2-180.2-1130.3,0
			c-156.1,90.1-234.1,208.2-234.1,326.3V475.9c0-104,60.5-208,181.5-292.8c16.4-11.5,34-22.7,52.6-33.5
			C1882,83.7,2022.2,41.9,2169.3,24.2c255-30.7,530.9,11.1,728.9,125.4C3054.2,239.7,3132.3,357.8,3132.3,475.9z"/>
		<path fill="#582463" d="M3132.3,477.5v1279.1c0-118.1-78-236.2-234.1-326.3c-312.1-180.2-818.2-180.2-1130.3,0
			c-156.1,90.1-234.1,208.2-234.1,326.3V477.5c0-104,60.5-208,181.5-292.8c16.4-11.5,34-22.7,52.6-33.5
			C1882,85.3,2022.2,43.5,2169.3,25.8c255-30.7,530.9,11.1,728.9,125.4C3054.2,241.3,3132.3,359.4,3132.3,477.5z"/>
		<path fill="#592564" d="M3132.3,479.1v1279.1c0-118.1-78-236.2-234.1-326.3c-312.1-180.2-818.2-180.2-1130.3,0
			c-156.1,90.1-234.1,208.2-234.1,326.3V479.1c0-104,60.5-208,181.5-292.8c16.4-11.5,34-22.7,52.6-33.5
			C1882,86.9,2022.2,45.1,2169.3,27.4c255-30.7,530.9,11.1,728.9,125.4C3054.2,242.9,3132.3,361,3132.3,479.1z"/>
		<path fill="#5A2565" d="M3132.3,480.7v1279.1c0-118.1-78-236.2-234.1-326.3c-312.1-180.2-818.2-180.2-1130.3,0
			c-156.1,90.1-234.1,208.2-234.1,326.3V480.7c0-104,60.5-208,181.5-292.8c16.4-11.5,34-22.7,52.6-33.5
			C1882,88.5,2022.2,46.7,2169.3,29c255-30.7,530.9,11.1,728.9,125.4C3054.2,244.5,3132.3,362.6,3132.3,480.7z"/>
		<path fill="#5B2666" d="M3132.3,482.3v1279.1c0-118.1-78-236.2-234.1-326.3c-312.1-180.2-818.2-180.2-1130.3,0
			c-156.1,90.1-234.1,208.2-234.1,326.3V482.3c0-104,60.5-208,181.5-292.8c16.4-11.5,34-22.7,52.6-33.5
			C1882,90.1,2022.2,48.3,2169.3,30.6c255-30.7,530.9,11.1,728.9,125.4C3054.2,246.1,3132.3,364.2,3132.3,482.3z"/>
		<path fill="#5C2667" d="M3132.3,483.9V1763c0-118.1-78-236.2-234.1-326.3c-312.1-180.2-818.2-180.2-1130.3,0
			c-156.1,90.1-234.1,208.2-234.1,326.3V483.9c0-104,60.5-208,181.5-292.8c16.4-11.5,34-22.7,52.6-33.5
			C1882,91.7,2022.2,49.9,2169.3,32.2c255-30.7,530.9,11.1,728.9,125.4C3054.2,247.7,3132.3,365.8,3132.3,483.9z"/>
		<path fill="#5C2768" d="M3132.3,485.5v1279.1c0-118.1-78-236.2-234.1-326.3c-312.1-180.2-818.2-180.2-1130.3,0
			c-156.1,90.1-234.1,208.2-234.1,326.3V485.5c0-104,60.5-208,181.5-292.8c16.4-11.5,34-22.7,52.6-33.5
			C1882,93.3,2022.2,51.5,2169.3,33.8c255-30.7,530.9,11.1,728.9,125.4C3054.2,249.3,3132.3,367.4,3132.3,485.5z"/>
		<path fill="#5D2769" d="M3132.3,487.1v1279.1c0-118.1-78-236.2-234.1-326.3c-312.1-180.2-818.2-180.2-1130.3,0
			c-156.1,90.1-234.1,208.2-234.1,326.3V487.1c0-104,60.5-208,181.5-292.8c16.4-11.5,34-22.7,52.6-33.5
			C1882,94.9,2022.2,53.1,2169.3,35.4c255-30.7,530.9,11.1,728.9,125.4C3054.2,251,3132.3,369,3132.3,487.1z"/>
		<path fill="#5E286A" d="M3132.3,488.7v1279.1c0-118.1-78-236.2-234.1-326.3c-312.1-180.2-818.2-180.2-1130.3,0
			c-156.1,90.1-234.1,208.2-234.1,326.3V488.7c0-104,60.5-208,181.5-292.8c16.4-11.5,34-22.7,52.6-33.5
			C1882,96.5,2022.2,54.7,2169.3,37c255-30.7,530.9,11.1,728.9,125.4C3054.2,252.6,3132.3,370.6,3132.3,488.7z"/>
		<path fill="#5F286B" d="M3132.3,490.3v1279.1c0-118.1-78-236.2-234.1-326.3c-312.1-180.2-818.2-180.2-1130.3,0
			c-156.1,90.1-234.1,208.2-234.1,326.3V490.3c0-104,60.5-208,181.5-292.8c16.4-11.5,34-22.7,52.6-33.5
			C1882,98.1,2022.2,56.3,2169.3,38.6c255-30.7,530.9,11.1,728.9,125.4C3054.2,254.2,3132.3,372.2,3132.3,490.3z"/>
		<path fill="#60296C" d="M3132.3,492V1771c0-118.1-78-236.2-234.1-326.3c-312.1-180.2-818.2-180.2-1130.3,0
			c-156.1,90.1-234.1,208.2-234.1,326.3V492c0-104,60.5-208,181.5-292.8c16.4-11.5,34-22.7,52.6-33.5
			C1882,99.7,2022.2,57.9,2169.3,40.2c255-30.7,530.9,11.1,728.9,125.4C3054.2,255.8,3132.3,373.9,3132.3,492z"/>
		<path fill="#61296D" d="M3132.3,493.6v1279.1c0-118.1-78-236.2-234.1-326.3c-312.1-180.2-818.2-180.2-1130.3,0
			c-156.1,90.1-234.1,208.2-234.1,326.3V493.6c0-104,60.5-208,181.5-292.8c16.4-11.5,34-22.7,52.6-33.5
			c114.2-65.9,254.3-107.7,401.4-125.4c255-30.7,530.9,11.1,728.9,125.4C3054.2,257.4,3132.3,375.5,3132.3,493.6z"/>
		<path fill="#612A6E" d="M3132.3,495.2v1279.1c0-118.1-78-236.2-234.1-326.3c-312.1-180.2-818.2-180.2-1130.3,0
			c-156.1,90.1-234.1,208.2-234.1,326.3V495.2c0-104,60.5-208,181.5-292.8c16.4-11.5,34-22.7,52.6-33.5
			c114.2-65.9,254.3-107.7,401.4-125.4c255-30.7,530.9,11.1,728.9,125.4C3054.2,259,3132.3,377.1,3132.3,495.2z"/>
		<path fill="#622A6F" d="M3132.3,496.8v1279.1c0-118.1-78-236.2-234.1-326.3c-312.1-180.2-818.2-180.2-1130.3,0
			c-156.1,90.1-234.1,208.2-234.1,326.3V496.8c0-104,60.5-208,181.5-292.8c16.4-11.5,34-22.7,52.6-33.5
			c114.2-65.9,254.3-107.7,401.4-125.4c255-30.7,530.9,11.1,728.9,125.4C3054.2,260.6,3132.3,378.7,3132.3,496.8z"/>
		<path fill="#632B70" d="M3132.3,498.4v1279.1c0-118.1-78-236.2-234.1-326.3c-312.1-180.2-818.2-180.2-1130.3,0
			c-156.1,90.1-234.1,208.2-234.1,326.3V498.4c0-104,60.5-208,181.5-292.8c16.4-11.5,34-22.7,52.6-33.5
			c114.2-65.9,254.3-107.7,401.4-125.4c255-30.7,530.9,11.1,728.9,125.4C3054.2,262.2,3132.3,380.3,3132.3,498.4z"/>
		<path fill="#642B71" d="M3132.3,500v1279.1c0-118.1-78-236.2-234.1-326.3c-312.1-180.2-818.2-180.2-1130.3,0
			c-156.1,90.1-234.1,208.2-234.1,326.3V500c0-104,60.5-208,181.5-292.8c16.4-11.5,34-22.7,52.6-33.5
			C1882,107.8,2022.2,66,2169.3,48.3c255-30.7,530.9,11.1,728.9,125.4C3054.2,263.8,3132.3,381.9,3132.3,500z"/>
		<path fill="#652C72" d="M3132.3,501.6v1279.1c0-118.1-78-236.2-234.1-326.3c-312.1-180.2-818.2-180.2-1130.3,0
			c-156.1,90.1-234.1,208.2-234.1,326.3V501.6c0-104,60.5-208,181.5-292.8c16.4-11.5,34-22.7,52.6-33.5
			c114.2-65.9,254.3-107.7,401.4-125.4c255-30.7,530.9,11.1,728.9,125.4C3054.2,265.4,3132.3,383.5,3132.3,501.6z"/>
		<path fill="#652C73" d="M3132.3,503.2v1279.1c0-118.1-78-236.2-234.1-326.3c-312.1-180.2-818.2-180.2-1130.3,0
			c-156.1,90.1-234.1,208.2-234.1,326.3V503.2c0-104,60.5-208,181.5-292.8c16.4-11.5,34-22.7,52.6-33.5
			C1882,111,2022.2,69.2,2169.3,51.5c255-30.7,530.9,11.1,728.9,125.4C3054.2,267,3132.3,385.1,3132.3,503.2z"/>
		<path fill="#662D74" d="M3132.3,504.8v1279.1c0-118.1-78-236.2-234.1-326.3c-312.1-180.2-818.2-180.2-1130.3,0
			c-156.1,90.1-234.1,208.2-234.1,326.3V504.8c0-104,60.5-208,181.5-292.8c16.4-11.5,34-22.7,52.6-33.5
			c114.2-65.9,254.3-107.7,401.4-125.4c255-30.7,530.9,11.1,728.9,125.4C3054.2,268.6,3132.3,386.7,3132.3,504.8z"/>
		<path fill="#672D75" d="M3132.3,506.4v1279.1c0-118.1-78-236.2-234.1-326.3c-312.1-180.2-818.2-180.2-1130.3,0
			c-156.1,90.1-234.1,208.2-234.1,326.3V506.4c0-104,60.5-208,181.5-292.8c16.4-11.5,34-22.7,52.6-33.5
			c114.2-65.9,254.3-107.7,401.4-125.4c255-30.7,530.9,11.1,728.9,125.4C3054.2,270.2,3132.3,388.3,3132.3,506.4z"/>
		<path fill="#682E76" d="M3132.3,508v1279.1c0-118.1-78-236.2-234.1-326.3c-312.1-180.2-818.2-180.2-1130.3,0
			c-156.1,90.1-234.1,208.2-234.1,326.3V508c0-104,60.5-208,181.5-292.8c16.4-11.5,34-22.7,52.6-33.5
			C1882,115.8,2022.2,74,2169.3,56.3c255-30.7,530.9,11.1,728.9,125.4C3054.2,271.8,3132.3,389.9,3132.3,508z"/>
		<path fill="#692E77" d="M3132.3,509.6v1279.1c0-118.1-78-236.2-234.1-326.3c-312.1-180.2-818.2-180.2-1130.3,0
			c-156.1,90.1-234.1,208.2-234.1,326.3V509.6c0-104,60.5-208,181.5-292.8c16.4-11.5,34-22.7,52.6-33.5
			c114.2-65.9,254.3-107.7,401.4-125.4c255-30.7,530.9,11.1,728.9,125.4C3054.2,273.4,3132.3,391.5,3132.3,509.6z"/>
		<path fill="#6A2F78" d="M3132.3,511.2v1279.1c0-118.1-78-236.2-234.1-326.3c-312.1-180.2-818.2-180.2-1130.3,0
			c-156.1,90.1-234.1,208.2-234.1,326.3V511.2c0-104,60.5-208,181.5-292.8c16.4-11.5,34-22.7,52.6-33.5
			C1882,119,2022.2,77.2,2169.3,59.5c255-30.7,530.9,11.1,728.9,125.4C3054.2,275,3132.3,393.1,3132.3,511.2z"/>
		<path fill="#6A2F79" d="M3132.3,512.8v1279.1c0-118.1-78-236.2-234.1-326.3c-312.1-180.2-818.2-180.2-1130.3,0
			c-156.1,90.1-234.1,208.2-234.1,326.3V512.8c0-104,60.5-208,181.5-292.8c16.4-11.5,34-22.7,52.6-33.5
			c114.2-65.9,254.3-107.7,401.4-125.4c255-30.7,530.9,11.1,728.9,125.4C3054.2,276.6,3132.3,394.7,3132.3,512.8z"/>
		<path fill="#6B307A" d="M3132.3,514.4v1279.1c0-118.1-78-236.2-234.1-326.3c-312.1-180.2-818.2-180.2-1130.3,0
			c-156.1,90.1-234.1,208.2-234.1,326.3V514.4c0-104,60.5-208,181.5-292.8c16.4-11.5,34-22.7,52.6-33.5
			c114.2-65.9,254.3-107.7,401.4-125.4c255-30.7,530.9,11.1,728.9,125.4C3054.2,278.2,3132.3,396.3,3132.3,514.4z"/>
		<path fill="#6C307B" d="M3132.3,516v1279.1c0-118.1-78-236.2-234.1-326.3c-312.1-180.2-818.2-180.2-1130.3,0
			c-156.1,90.1-234.1,208.2-234.1,326.3V516c0-104,60.5-208,181.5-292.8c16.4-11.5,34-22.7,52.6-33.5
			C1882,123.8,2022.2,82,2169.3,64.3c255-30.7,530.9,11.1,728.9,125.4C3054.2,279.9,3132.3,397.9,3132.3,516z"/>
		<path fill="#6D317C" d="M3132.3,517.6v1279.1c0-118.1-78-236.2-234.1-326.3c-312.1-180.2-818.2-180.2-1130.3,0
			c-156.1,90.1-234.1,208.2-234.1,326.3V517.6c0-104,60.5-208,181.5-292.8c16.4-11.5,34-22.7,52.6-33.5
			c114.2-65.9,254.3-107.7,401.4-125.4c255-30.7,530.9,11.1,728.9,125.4C3054.2,281.5,3132.3,399.5,3132.3,517.6z"/>
		<path fill="#6E317D" d="M3132.3,519.2v1279.1c0-118.1-78-236.2-234.1-326.3c-312.1-180.2-818.2-180.2-1130.3,0
			c-156.1,90.1-234.1,208.2-234.1,326.3V519.2c0-104,60.5-208,181.5-292.8c16.4-11.5,34-22.7,52.6-33.5
			C1882,127,2022.2,85.2,2169.3,67.5c255-30.7,530.9,11.1,728.9,125.4C3054.2,283.1,3132.3,401.2,3132.3,519.2z"/>
		<path fill="#6F327E" d="M3132.3,520.9v1279.1c0-118.1-78-236.2-234.1-326.3c-312.1-180.2-818.2-180.2-1130.3,0
			c-156.1,90.1-234.1,208.2-234.1,326.3V520.9c0-104,60.5-208,181.5-292.8c16.4-11.5,34-22.7,52.6-33.5
			c114.2-65.9,254.3-107.7,401.4-125.4c255-30.7,530.9,11.1,728.9,125.4C3054.2,284.7,3132.3,402.8,3132.3,520.9z"/>
		<path fill="#6F327F" d="M3132.3,522.5v1279.1c0-118.1-78-236.2-234.1-326.3c-312.1-180.2-818.2-180.2-1130.3,0
			c-156.1,90.1-234.1,208.2-234.1,326.3V522.5c0-104,60.5-208,181.5-292.8c16.4-11.5,34-22.7,52.6-33.5
			c114.2-65.9,254.3-107.7,401.4-125.4c255-30.7,530.9,11.1,728.9,125.4C3054.2,286.3,3132.3,404.4,3132.3,522.5z"/>
		<path fill="#703380" d="M3132.3,524.1v1279.1c0-118.1-78-236.2-234.1-326.3c-312.1-180.2-818.2-180.2-1130.3,0
			c-156.1,90.1-234.1,208.2-234.1,326.3V524.1c0-104,60.5-208,181.5-292.8c16.4-11.5,34-22.7,52.6-33.5
			C1882,131.8,2022.2,90,2169.3,72.4c255-30.7,530.9,11.1,728.9,125.4C3054.2,287.9,3132.3,406,3132.3,524.1z"/>
		<path fill="#713381" d="M3132.3,525.7v1279.1c0-118.1-78-236.2-234.1-326.3c-312.1-180.2-818.2-180.2-1130.3,0
			c-156.1,90.1-234.1,208.2-234.1,326.3V525.7c0-104,60.5-208,181.5-292.8c16.4-11.5,34-22.7,52.6-33.5
			C1882,133.4,2022.2,91.6,2169.3,74c255-30.7,530.9,11.1,728.9,125.4C3054.2,289.5,3132.3,407.6,3132.3,525.7z"/>
		<path fill="#723482" d="M3132.3,527.3v1279.1c0-118.1-78-236.2-234.1-326.3c-312.1-180.2-818.2-180.2-1130.3,0
			c-156.1,90.1-234.1,208.2-234.1,326.3V527.3c0-104,60.5-208,181.5-292.8c16.4-11.5,34-22.7,52.6-33.5
			c114.2-65.9,254.3-107.7,401.4-125.4c255-30.7,530.9,11.1,728.9,125.4C3054.2,291.1,3132.3,409.2,3132.3,527.3z"/>
		<path fill="#733483" d="M3132.3,528.9V1808c0-118.1-78-236.2-234.1-326.3c-312.1-180.2-818.2-180.2-1130.3,0
			c-156.1,90.1-234.1,208.2-234.1,326.3V528.9c0-104,60.5-208,181.5-292.8c16.4-11.5,34-22.7,52.6-33.5
			c114.2-65.9,254.3-107.7,401.4-125.4c255-30.7,530.9,11.1,728.9,125.4C3054.2,292.7,3132.3,410.8,3132.3,528.9z"/>
		<path fill="#733584" d="M3132.3,530.5v1279.1c0-118.1-78-236.2-234.1-326.3c-312.1-180.2-818.2-180.2-1130.3,0
			c-156.1,90.1-234.1,208.2-234.1,326.3V530.5c0-104,60.5-208,181.5-292.8c16.4-11.5,34-22.7,52.6-33.5
			c114.2-65.9,254.3-107.7,401.4-125.4c255-30.7,530.9,11.1,728.9,125.4C3054.2,294.3,3132.3,412.4,3132.3,530.5z"/>
		<path fill="#743585" d="M3132.3,532.1v1279.1c0-118.1-78-236.2-234.1-326.3c-312.1-180.2-818.2-180.2-1130.3,0
			c-156.1,90.1-234.1,208.2-234.1,326.3V532.1c0-104,60.5-208,181.5-292.8c16.4-11.5,34-22.7,52.6-33.5
			c114.2-65.9,254.3-107.7,401.4-125.4c255-30.7,530.9,11.1,728.9,125.4C3054.2,295.9,3132.3,414,3132.3,532.1z"/>
		<path fill="#753686" d="M3132.3,533.7v1279.1c0-118.1-78-236.2-234.1-326.3c-312.1-180.2-818.2-180.2-1130.3,0
			c-156.1,90.1-234.1,208.2-234.1,326.3V533.7c0-104,60.5-208,181.5-292.8c16.4-11.5,34-22.7,52.6-33.5
			C1882,141.5,2022.2,99.7,2169.3,82c255-30.7,530.9,11.1,728.9,125.4C3054.2,297.5,3132.3,415.6,3132.3,533.7z"/>
		<path fill="#763687" d="M3132.3,535.3v1279.1c0-118.1-78-236.2-234.1-326.3c-312.1-180.2-818.2-180.2-1130.3,0
			c-156.1,90.1-234.1,208.2-234.1,326.3V535.3c0-104,60.5-208,181.5-292.8c16.4-11.5,34-22.7,52.6-33.5
			c114.2-65.9,254.3-107.7,401.4-125.4c255-30.7,530.9,11.1,728.9,125.4C3054.2,299.1,3132.3,417.2,3132.3,535.3z"/>
		<path fill="#773788" d="M3132.3,536.9V1816c0-118.1-78-236.2-234.1-326.3c-312.1-180.2-818.2-180.2-1130.3,0
			c-156.1,90.1-234.1,208.2-234.1,326.3V536.9c0-104,60.5-208,181.5-292.8c16.4-11.5,34-22.7,52.6-33.5
			c114.2-65.9,254.3-107.7,401.4-125.4c255-30.7,530.9,11.1,728.9,125.4C3054.2,300.7,3132.3,418.8,3132.3,536.9z"/>
		<path fill="#783789" d="M3132.3,538.5v1279.1c0-118.1-78-236.2-234.1-326.3c-312.1-180.2-818.2-180.2-1130.3,0
			c-156.1,90.1-234.1,208.2-234.1,326.3V538.5c0-104,60.5-208,181.5-292.8c16.4-11.5,34-22.7,52.6-33.5
			c114.2-65.9,254.3-107.7,401.4-125.4c255-30.7,530.9,11.1,728.9,125.4C3054.2,302.3,3132.3,420.4,3132.3,538.5z"/>
		<path fill="#78388A" d="M3132.3,540.1v1279.1c0-118.1-78-236.2-234.1-326.3c-312.1-180.2-818.2-180.2-1130.3,0
			c-156.1,90.1-234.1,208.2-234.1,326.3V540.1c0-104,60.5-208,181.5-292.8c16.4-11.5,34-22.7,52.6-33.5
			c114.2-65.9,254.3-107.7,401.4-125.4c255-30.7,530.9,11.1,728.9,125.4C3054.2,303.9,3132.3,422,3132.3,540.1z"/>
		<path fill="#79388B" d="M3132.3,541.7v1279.1c0-118.1-78-236.2-234.1-326.3c-312.1-180.2-818.2-180.2-1130.3,0
			c-156.1,90.1-234.1,208.2-234.1,326.3V541.7c0-104,60.5-208,181.5-292.8c16.4-11.5,34-22.7,52.6-33.5
			C1882,149.5,2022.2,107.7,2169.3,90c255-30.7,530.9,11.1,728.9,125.4C3054.2,305.5,3132.3,423.6,3132.3,541.7z"/>
		<path fill="#7A398C" d="M3132.3,543.3v1279.1c0-118.1-78-236.2-234.1-326.3c-312.1-180.2-818.2-180.2-1130.3,0
			c-156.1,90.1-234.1,208.2-234.1,326.3V543.3c0-104,60.5-208,181.5-292.8c16.4-11.5,34-22.7,52.6-33.5
			c114.2-65.9,254.3-107.7,401.4-125.4c255-30.7,530.9,11.1,728.9,125.4C3054.2,307.2,3132.3,425.2,3132.3,543.3z"/>
		<path fill="#7B398D" d="M3132.3,544.9V1824c0-118.1-78-236.2-234.1-326.3c-312.1-180.2-818.2-180.2-1130.3,0
			c-156.1,90.1-234.1,208.2-234.1,326.3V544.9c0-104,60.5-208,181.5-292.8c16.4-11.5,34-22.7,52.6-33.5
			c114.2-65.9,254.3-107.7,401.4-125.4c255-30.7,530.9,11.1,728.9,125.4C3054.2,308.8,3132.3,426.8,3132.3,544.9z"/>
		<path fill="#7C3A8E" d="M3132.3,546.5v1279.1c0-118.1-78-236.2-234.1-326.3c-312.1-180.2-818.2-180.2-1130.3,0
			c-156.1,90.1-234.1,208.2-234.1,326.3V546.5c0-104,60.5-208,181.5-292.8c16.4-11.5,34-22.7,52.6-33.5
			c114.2-65.9,254.3-107.7,401.4-125.4c255-30.7,530.9,11.1,728.9,125.4C3054.2,310.4,3132.3,428.4,3132.3,546.5z"/>
		<path fill="#7D3A8F" d="M3132.3,548.2v1279.1c0-118.1-78-236.2-234.1-326.3c-312.1-180.2-818.2-180.2-1130.3,0
			c-156.1,90.1-234.1,208.2-234.1,326.3V548.2c0-104,60.5-208,181.5-292.8c16.4-11.5,34-22.7,52.6-33.5
			c114.2-65.9,254.3-107.7,401.4-125.4c255-30.7,530.9,11.1,728.9,125.4C3054.2,312,3132.3,430.1,3132.3,548.2z"/>
		<path fill="#7D3B90" d="M3132.3,549.8v1279.1c0-118.1-78-236.2-234.1-326.3c-312.1-180.2-818.2-180.2-1130.3,0
			c-156.1,90.1-234.1,208.2-234.1,326.3V549.8c0-104,60.5-208,181.5-292.8c16.4-11.5,34-22.7,52.6-33.5
			C1882,157.5,2022.2,115.7,2169.3,98c255-30.7,530.9,11.1,728.9,125.4C3054.2,313.6,3132.3,431.7,3132.3,549.8z"/>
		<path fill="#7E3B91" d="M3132.3,551.4v1279.1c0-118.1-78-236.2-234.1-326.3c-312.1-180.2-818.2-180.2-1130.3,0
			c-156.1,90.1-234.1,208.2-234.1,326.3V551.4c0-104,60.5-208,181.5-292.8c16.4-11.5,34-22.7,52.6-33.5
			c114.2-65.9,254.3-107.7,401.4-125.4c255-30.7,530.9,11.1,728.9,125.4C3054.2,315.2,3132.3,433.3,3132.3,551.4z"/>
		<path fill="#7F3C92" d="M3132.3,553V1832c0-118.1-78-236.2-234.1-326.3c-312.1-180.2-818.2-180.2-1130.3,0
			c-156.1,90.1-234.1,208.2-234.1,326.3V553c0-104,60.5-208,181.5-292.8c16.4-11.5,34-22.7,52.6-33.5
			c114.2-65.9,254.3-107.7,401.4-125.4c255-30.7,530.9,11.1,728.9,125.4C3054.2,316.8,3132.3,434.9,3132.3,553z"/>
		<path fill="#803C93" d="M3132.3,554.6v1279.1c0-118.1-78-236.2-234.1-326.3c-312.1-180.2-818.2-180.2-1130.3,0
			c-156.1,90.1-234.1,208.2-234.1,326.3V554.6c0-104,60.5-208,181.5-292.8c16.4-11.5,34-22.7,52.6-33.5
			c114.2-65.9,254.3-107.7,401.4-125.4c255-30.7,530.9,11.1,728.9,125.4C3054.2,318.4,3132.3,436.5,3132.3,554.6z"/>
		<path fill="#813D94" d="M3132.3,556.2v1279.1c0-118.1-78-236.2-234.1-326.3c-312.1-180.2-818.2-180.2-1130.3,0
			c-156.1,90.1-234.1,208.2-234.1,326.3V556.2c0-104,60.5-208,181.5-292.8c16.4-11.5,34-22.7,52.6-33.5
			c114.2-65.9,254.3-107.7,401.4-125.4c255-30.7,530.9,11.1,728.9,125.4C3054.2,320,3132.3,438.1,3132.3,556.2z"/>
		<path fill="#823D95" d="M3132.3,557.8v1279.1c0-118.1-78-236.2-234.1-326.3c-312.1-180.2-818.2-180.2-1130.3,0
			c-156.1,90.1-234.1,208.2-234.1,326.3V557.8c0-104,60.5-208,181.5-292.8c16.4-11.5,34-22.7,52.6-33.5
			c114.2-65.9,254.3-107.7,401.4-125.4c255-30.7,530.9,11.1,728.9,125.4C3054.2,321.6,3132.3,439.7,3132.3,557.8z"/>
		<path fill="#823E96" d="M3132.3,559.4v1279.1c0-118.1-78-236.2-234.1-326.3c-312.1-180.2-818.2-180.2-1130.3,0
			c-156.1,90.1-234.1,208.2-234.1,326.3V559.4c0-104,60.5-208,181.5-292.8c16.4-11.5,34-22.7,52.6-33.5
			c114.2-65.9,254.3-107.7,401.4-125.4c255-30.7,530.9,11.1,728.9,125.4C3054.2,323.2,3132.3,441.3,3132.3,559.4z"/>
		<path fill="#833E97" d="M3132.3,561v1279.1c0-118.1-78-236.2-234.1-326.3c-312.1-180.2-818.2-180.2-1130.3,0
			c-156.1,90.1-234.1,208.2-234.1,326.3V561c0-104,60.5-208,181.5-292.8c16.4-11.5,34-22.7,52.6-33.5
			c114.2-65.9,254.3-107.7,401.4-125.4c255-30.7,530.9,11.1,728.9,125.4C3054.2,324.8,3132.3,442.9,3132.3,561z"/>
		<path fill="#843F98" d="M3132.3,562.6v1279.1c0-118.1-78-236.2-234.1-326.3c-312.1-180.2-818.2-180.2-1130.3,0
			c-156.1,90.1-234.1,208.2-234.1,326.3V562.6c0-104,60.5-208,181.5-292.8c16.4-11.5,34-22.7,52.6-33.5
			c114.2-65.9,254.3-107.7,401.4-125.4c255-30.7,530.9,11.1,728.9,125.4C3054.2,326.4,3132.3,444.5,3132.3,562.6z"/>
		<path fill="#853F99" d="M3132.3,564.2v1279.1c0-118.1-78-236.2-234.1-326.3c-312.1-180.2-818.2-180.2-1130.3,0
			c-156.1,90.1-234.1,208.2-234.1,326.3V564.2c0-104,60.5-208,181.5-292.8c16.4-11.5,34-22.7,52.6-33.5
			c114.2-65.9,254.3-107.7,401.4-125.4c255-30.7,530.9,11.1,728.9,125.4C3054.2,328,3132.3,446.1,3132.3,564.2z"/>
		<path fill="#86409A" d="M3132.3,565.8v1279.1c0-118.1-78-236.2-234.1-326.3c-312.1-180.2-818.2-180.2-1130.3,0
			c-156.1,90.1-234.1,208.2-234.1,326.3V565.8c0-104,60.5-208,181.5-292.8c16.4-11.5,34-22.7,52.6-33.5
			c114.2-65.9,254.3-107.7,401.4-125.4c255-30.7,530.9,11.1,728.9,125.4C3054.2,329.6,3132.3,447.7,3132.3,565.8z"/>
		<path fill="#86409B" d="M3132.3,567.4v1279.1c0-118.1-78-236.2-234.1-326.3c-312.1-180.2-818.2-180.2-1130.3,0
			c-156.1,90.1-234.1,208.2-234.1,326.3V567.4c0-104,60.5-208,181.5-292.8c16.4-11.5,34-22.7,52.6-33.5
			c114.2-65.9,254.3-107.7,401.4-125.4c255-30.7,530.9,11.1,728.9,125.4C3054.2,331.2,3132.3,449.3,3132.3,567.4z"/>
		<path fill="#87419C" d="M3132.3,569v1279.1c0-118.1-78-236.2-234.1-326.3c-312.1-180.2-818.2-180.2-1130.3,0
			c-156.1,90.1-234.1,208.2-234.1,326.3V569c0-104,60.5-208,181.5-292.8c16.4-11.5,34-22.7,52.6-33.5
			c114.2-65.9,254.3-107.7,401.4-125.4c255-30.7,530.9,11.1,728.9,125.4C3054.2,332.8,3132.3,450.9,3132.3,569z"/>
		<path fill="#88419D" d="M3132.3,570.6v1279.1c0-118.1-78-236.2-234.1-326.3c-312.1-180.2-818.2-180.2-1130.3,0
			c-156.1,90.1-234.1,208.2-234.1,326.3V570.6c0-104,60.5-208,181.5-292.8c16.4-11.5,34-22.7,52.6-33.5
			c114.2-65.9,254.3-107.7,401.4-125.4c255-30.7,530.9,11.1,728.9,125.4C3054.2,334.4,3132.3,452.5,3132.3,570.6z"/>
		<path fill="#89429E" d="M3132.3,572.2v1279.1c0-118.1-78-236.2-234.1-326.3c-312.1-180.2-818.2-180.2-1130.3,0
			c-156.1,90.1-234.1,208.2-234.1,326.3V572.2c0-104,60.5-208,181.5-292.8c16.4-11.5,34-22.7,52.6-33.5
			c114.2-65.9,254.3-107.7,401.4-125.4c255-30.7,530.9,11.1,728.9,125.4C3054.2,336.1,3132.3,454.1,3132.3,572.2z"/>
		<path fill="#8A429F" d="M3132.3,573.8v1279.1c0-118.1-78-236.2-234.1-326.3c-312.1-180.2-818.2-180.2-1130.3,0
			c-156.1,90.1-234.1,208.2-234.1,326.3V573.8c0-104,60.5-208,181.5-292.8c16.4-11.5,34-22.7,52.6-33.5
			c114.2-65.9,254.3-107.7,401.4-125.4c255-30.7,530.9,11.1,728.9,125.4C3054.2,337.7,3132.3,455.7,3132.3,573.8z"/>
		<path fill="#8B43A0" d="M3132.3,575.4v1279.1c0-118.1-78-236.2-234.1-326.3c-312.1-180.2-818.2-180.2-1130.3,0
			c-156.1,90.1-234.1,208.2-234.1,326.3V575.4c0-104,60.5-208,181.5-292.8c16.4-11.5,34-22.7,52.6-33.5
			c114.2-65.9,254.3-107.7,401.4-125.4c255-30.7,530.9,11.1,728.9,125.4C3054.2,339.3,3132.3,457.4,3132.3,575.4z"/>
		<path fill="#8B43A1" d="M3132.3,577.1v1279.1c0-118.1-78-236.2-234.1-326.3c-312.1-180.2-818.2-180.2-1130.3,0
			c-156.1,90.1-234.1,208.2-234.1,326.3V577.1c0-104,60.5-208,181.5-292.8c16.4-11.5,34-22.7,52.6-33.5
			c114.2-65.9,254.3-107.7,401.4-125.4c255-30.7,530.9,11.1,728.9,125.4C3054.2,340.9,3132.3,459,3132.3,577.1z"/>
		<path fill="#8C44A2" d="M3132.3,578.7v1279.1c0-118.1-78-236.2-234.1-326.3c-312.1-180.2-818.2-180.2-1130.3,0
			c-156.1,90.1-234.1,208.2-234.1,326.3V578.7c0-104,60.5-208,181.5-292.8c16.4-11.5,34-22.7,52.6-33.5
			c114.2-65.9,254.3-107.7,401.4-125.4c255-30.7,530.9,11.1,728.9,125.4C3054.2,342.5,3132.3,460.6,3132.3,578.7z"/>
		<path fill="#8D44A3" d="M3132.3,580.3v1279.1c0-118.1-78-236.2-234.1-326.3c-312.1-180.2-818.2-180.2-1130.3,0
			c-156.1,90.1-234.1,208.2-234.1,326.3V580.3c0-104,60.5-208,181.5-292.8c16.4-11.5,34-22.7,52.6-33.5
			c114.2-65.9,254.3-107.7,401.4-125.4c255-30.7,530.9,11.1,728.9,125.4C3054.2,344.1,3132.3,462.2,3132.3,580.3z"/>
		<path fill="#8E45A4" d="M3132.3,581.9V1861c0-118.1-78-236.2-234.1-326.3c-312.1-180.2-818.2-180.2-1130.3,0
			c-156.1,90.1-234.1,208.2-234.1,326.3V581.9c0-104,60.5-208,181.5-292.8c16.4-11.5,34-22.7,52.6-33.5
			c114.2-65.9,254.3-107.7,401.4-125.4c255-30.7,530.9,11.1,728.9,125.4C3054.2,345.7,3132.3,463.8,3132.3,581.9z"/>
		<path fill="#8F45A5" d="M3132.3,583.5v1279.1c0-118.1-78-236.2-234.1-326.3c-312.1-180.2-818.2-180.2-1130.3,0
			c-156.1,90.1-234.1,208.2-234.1,326.3V583.5c0-104,60.5-208,181.5-292.8c16.4-11.5,34-22.7,52.6-33.5
			c114.2-65.9,254.3-107.7,401.4-125.4c255-30.7,530.9,11.1,728.9,125.4C3054.2,347.3,3132.3,465.4,3132.3,583.5z"/>
		<path fill="#9046A6" d="M3132.3,585.1v1279.1c0-118.1-78-236.2-234.1-326.3c-312.1-180.2-818.2-180.2-1130.3,0
			c-156.1,90.1-234.1,208.2-234.1,326.3V585.1c0-104,60.5-208,181.5-292.8c16.4-11.5,34-22.7,52.6-33.5
			c114.2-65.9,254.3-107.7,401.4-125.4c255-30.7,530.9,11.1,728.9,125.4C3054.2,348.9,3132.3,467,3132.3,585.1z"/>
		<path fill="#9046A7" d="M3132.3,586.7v1279.1c0-118.1-78-236.2-234.1-326.3c-312.1-180.2-818.2-180.2-1130.3,0
			c-156.1,90.1-234.1,208.2-234.1,326.3V586.7c0-104,60.5-208,181.5-292.8c16.4-11.5,34-22.7,52.6-33.5
			c114.2-65.9,254.3-107.7,401.4-125.4c255-30.7,530.9,11.1,728.9,125.4C3054.2,350.5,3132.3,468.6,3132.3,586.7z"/>
		<path fill="#9147A8" d="M3132.3,588.3v1279.1c0-118.1-78-236.2-234.1-326.3c-312.1-180.2-818.2-180.2-1130.3,0
			c-156.1,90.1-234.1,208.2-234.1,326.3V588.3c0-104,60.5-208,181.5-292.8c16.4-11.5,34-22.7,52.6-33.5
			c114.2-65.9,254.3-107.7,401.4-125.4c255-30.7,530.9,11.1,728.9,125.4C3054.2,352.1,3132.3,470.2,3132.3,588.3z"/>
		<path fill="#9247A9" d="M3132.3,589.9V1869c0-118.1-78-236.2-234.1-326.3c-312.1-180.2-818.2-180.2-1130.3,0
			c-156.1,90.1-234.1,208.2-234.1,326.3V589.9c0-104,60.5-208,181.5-292.8c16.4-11.5,34-22.7,52.6-33.5
			c114.2-65.9,254.3-107.7,401.4-125.4c255-30.7,530.9,11.1,728.9,125.4C3054.2,353.7,3132.3,471.8,3132.3,589.9z"/>
		<path fill="#9348AA" d="M3132.3,591.5v1279.1c0-118.1-78-236.2-234.1-326.3c-312.1-180.2-818.2-180.2-1130.3,0
			c-156.1,90.1-234.1,208.2-234.1,326.3V591.5c0-104,60.5-208,181.5-292.8c16.4-11.5,34-22.7,52.6-33.5
			c114.2-65.9,254.3-107.7,401.4-125.4c255-30.7,530.9,11.1,728.9,125.4C3054.2,355.3,3132.3,473.4,3132.3,591.5z"/>
		<path fill="#9448AB" d="M3132.3,593.1v1279.1c0-118.1-78-236.2-234.1-326.3c-312.1-180.2-818.2-180.2-1130.3,0
			c-156.1,90.1-234.1,208.2-234.1,326.3V593.1c0-104,60.5-208,181.5-292.8c16.4-11.5,34-22.7,52.6-33.5
			c114.2-65.9,254.3-107.7,401.4-125.4c255-30.7,530.9,11.1,728.9,125.4C3054.2,356.9,3132.3,475,3132.3,593.1z"/>
		<path fill="#9449AC" d="M3132.3,594.7v1279.1c0-118.1-78-236.2-234.1-326.3c-312.1-180.2-818.2-180.2-1130.3,0
			c-156.1,90.1-234.1,208.2-234.1,326.3V594.7c0-104,60.5-208,181.5-292.8c16.4-11.5,34-22.7,52.6-33.5
			c114.2-65.9,254.3-107.7,401.4-125.4c255-30.7,530.9,11.1,728.9,125.4C3054.2,358.5,3132.3,476.6,3132.3,594.7z"/>
		<path fill="#954AAD" d="M3132.3,596.3v1279.1c0-118.1-78-236.2-234.1-326.3c-312.1-180.2-818.2-180.2-1130.3,0
			c-156.1,90.1-234.1,208.2-234.1,326.3V596.3c0-104,60.5-208,181.5-292.8c16.4-11.5,34-22.7,52.6-33.5
			c114.2-65.9,254.3-107.7,401.4-125.4c255-30.7,530.9,11.1,728.9,125.4C3054.2,360.1,3132.3,478.2,3132.3,596.3z"/>
		<path fill="#964AAE" d="M3132.3,597.9V1877c0-118.1-78-236.2-234.1-326.3c-312.1-180.2-818.2-180.2-1130.3,0
			c-156.1,90.1-234.1,208.2-234.1,326.3V597.9c0-104,60.5-208,181.5-292.8c16.4-11.5,34-22.7,52.6-33.5
			c114.2-65.9,254.3-107.7,401.4-125.4c255-30.7,530.9,11.1,728.9,125.4C3054.2,361.7,3132.3,479.8,3132.3,597.9z"/>
		<path fill="#974BAF" d="M3132.3,599.5v1279.1c0-118.1-78-236.2-234.1-326.3c-312.1-180.2-818.2-180.2-1130.3,0
			c-156.1,90.1-234.1,208.2-234.1,326.3V599.5c0-104,60.5-208,181.5-292.8c16.4-11.5,34-22.7,52.6-33.5
			c114.2-65.9,254.3-107.7,401.4-125.4c255-30.7,530.9,11.1,728.9,125.4C3054.2,363.4,3132.3,481.4,3132.3,599.5z"/>
		<path fill="#984BB0" d="M3132.3,601.1v1279.1c0-118.1-78-236.2-234.1-326.3c-312.1-180.2-818.2-180.2-1130.3,0
			c-156.1,90.1-234.1,208.2-234.1,326.3V601.1c0-104,60.5-208,181.5-292.8c16.4-11.5,34-22.7,52.6-33.5
			c114.2-65.9,254.3-107.7,401.4-125.4c255-30.7,530.9,11.1,728.9,125.4C3054.2,365,3132.3,483,3132.3,601.1z"/>
		<path fill="#994CB1" d="M3132.3,602.7v1279.1c0-118.1-78-236.2-234.1-326.3c-312.1-180.2-818.2-180.2-1130.3,0
			c-156.1,90.1-234.1,208.2-234.1,326.3V602.7c0-104,60.5-208,181.5-292.8c16.4-11.5,34-22.7,52.6-33.5
			c114.2-65.9,254.3-107.7,401.4-125.4c255-30.7,530.9,11.1,728.9,125.4C3054.2,366.6,3132.3,484.6,3132.3,602.7z"/>
		<path fill="#994CB2" d="M3132.3,604.4v1279.1c0-118.1-78-236.2-234.1-326.3c-312.1-180.2-818.2-180.2-1130.3,0
			c-156.1,90.1-234.1,208.2-234.1,326.3V604.4c0-104,60.5-208,181.5-292.8c16.4-11.5,34-22.7,52.6-33.5
			c114.2-65.9,254.3-107.7,401.4-125.4c255-30.7,530.9,11.1,728.9,125.4C3054.2,368.2,3132.3,486.3,3132.3,604.4z"/>
		<path fill="#9A4DB3" d="M3132.3,606V1885c0-118.1-78-236.2-234.1-326.3c-312.1-180.2-818.2-180.2-1130.3,0
			c-156.1,90.1-234.1,208.2-234.1,326.3V606c0-104,60.5-208,181.5-292.8c16.4-11.5,34-22.7,52.6-33.5
			c114.2-65.9,254.3-107.7,401.4-125.4c255-30.7,530.9,11.1,728.9,125.4C3054.2,369.8,3132.3,487.9,3132.3,606z"/>
		<path fill="#9B4DB4" d="M3132.3,607.6v1279.1c0-118.1-78-236.2-234.1-326.3c-312.1-180.2-818.2-180.2-1130.3,0
			c-156.1,90.1-234.1,208.2-234.1,326.3V607.6c0-104,60.5-208,181.5-292.8c16.4-11.5,34-22.7,52.6-33.5
			c114.2-65.9,254.3-107.7,401.4-125.4c255-30.7,530.9,11.1,728.9,125.4C3054.2,371.4,3132.3,489.5,3132.3,607.6z"/>
		<path fill="#9C4EB5" d="M3132.3,609.2v1279.1c0-118.1-78-236.2-234.1-326.3c-312.1-180.2-818.2-180.2-1130.3,0
			c-156.1,90.1-234.1,208.2-234.1,326.3V609.2c0-104,60.5-208,181.5-292.8c16.4-11.5,34-22.7,52.6-33.5
			c114.2-65.9,254.3-107.7,401.4-125.4c255-30.7,530.9,11.1,728.9,125.4C3054.2,373,3132.3,491.1,3132.3,609.2z"/>
		<path fill="#9D4EB6" d="M3132.3,610.8v1279.1c0-118.1-78-236.2-234.1-326.3c-312.1-180.2-818.2-180.2-1130.3,0
			c-156.1,90.1-234.1,208.2-234.1,326.3V610.8c0-104,60.5-208,181.5-292.8c16.4-11.5,34-22.7,52.6-33.5
			c114.2-65.9,254.3-107.7,401.4-125.4c255-30.7,530.9,11.1,728.9,125.4C3054.2,374.6,3132.3,492.7,3132.3,610.8z"/>
		<path fill="#9E4FB7" d="M3132.3,612.4v1279.1c0-118.1-78-236.2-234.1-326.3c-312.1-180.2-818.2-180.2-1130.3,0
			c-156.1,90.1-234.1,208.2-234.1,326.3V612.4c0-104,60.5-208,181.5-292.8c16.4-11.5,34-22.7,52.6-33.5
			c114.2-65.9,254.3-107.7,401.4-125.4c255-30.7,530.9,11.1,728.9,125.4C3054.2,376.2,3132.3,494.3,3132.3,612.4z"/>
		<path fill="#9E4FB8" d="M3132.3,614v1279.1c0-118.1-78-236.2-234.1-326.3c-312.1-180.2-818.2-180.2-1130.3,0
			c-156.1,90.1-234.1,208.2-234.1,326.3V614c0-104,60.5-208,181.5-292.8c16.4-11.5,34-22.7,52.6-33.5
			c114.2-65.9,254.3-107.7,401.4-125.4c255-30.7,530.9,11.1,728.9,125.4C3054.2,377.8,3132.3,495.9,3132.3,614z"/>
		<path fill="#9F50B9" d="M3132.3,615.6v1279.1c0-118.1-78-236.2-234.1-326.3c-312.1-180.2-818.2-180.2-1130.3,0
			c-156.1,90.1-234.1,208.2-234.1,326.3V615.6c0-104,60.5-208,181.5-292.8c16.4-11.5,34-22.7,52.6-33.5
			c114.2-65.9,254.3-107.7,401.4-125.4c255-30.7,530.9,11.1,728.9,125.4C3054.2,379.4,3132.3,497.5,3132.3,615.6z"/>
		<path fill="#A050BA" d="M3132.3,617.2v1279.1c0-118.1-78-236.2-234.1-326.3c-312.1-180.2-818.2-180.2-1130.3,0
			c-156.1,90.1-234.1,208.2-234.1,326.3V617.2c0-104,60.5-208,181.5-292.8c16.4-11.5,34-22.7,52.6-33.5
			c114.2-65.9,254.3-107.7,401.4-125.4c255-30.7,530.9,11.1,728.9,125.4C3054.2,381,3132.3,499.1,3132.3,617.2z"/>
		<path fill="#A151BB" d="M3132.3,618.8v1279.1c0-118.1-78-236.2-234.1-326.3c-312.1-180.2-818.2-180.2-1130.3,0
			c-156.1,90.1-234.1,208.2-234.1,326.3V618.8c0-104,60.5-208,181.5-292.8c16.4-11.5,34-22.7,52.6-33.5
			c114.2-65.9,254.3-107.7,401.4-125.4c255-30.7,530.9,11.1,728.9,125.4C3054.2,382.6,3132.3,500.7,3132.3,618.8z"/>
		<path fill="#A251BC" d="M3132.3,620.4v1279.1c0-118.1-78-236.2-234.1-326.3c-312.1-180.2-818.2-180.2-1130.3,0
			c-156.1,90.1-234.1,208.2-234.1,326.3V620.4c0-104,60.5-208,181.5-292.8c16.4-11.5,34-22.7,52.6-33.5
			c114.2-65.9,254.3-107.7,401.4-125.4c255-30.7,530.9,11.1,728.9,125.4C3054.2,384.2,3132.3,502.3,3132.3,620.4z"/>
		<path fill="#A352BD" d="M3132.3,622v1279.1c0-118.1-78-236.2-234.1-326.3c-312.1-180.2-818.2-180.2-1130.3,0
			c-156.1,90.1-234.1,208.2-234.1,326.3V622c0-104,60.5-208,181.5-292.8c16.4-11.5,34-22.7,52.6-33.5
			c114.2-65.9,254.3-107.7,401.4-125.4c255-30.7,530.9,11.1,728.9,125.4C3054.2,385.8,3132.3,503.9,3132.3,622z"/>
		<path fill="#A352BE" d="M3132.3,623.6v1279.1c0-118.1-78-236.2-234.1-326.3c-312.1-180.2-818.2-180.2-1130.3,0
			c-156.1,90.1-234.1,208.2-234.1,326.3V623.6c0-104,60.5-208,181.5-292.8c16.4-11.5,34-22.7,52.6-33.5
			c114.2-65.9,254.3-107.7,401.4-125.4c255-30.7,530.9,11.1,728.9,125.4C3054.2,387.4,3132.3,505.5,3132.3,623.6z"/>
		<path fill="#A453BF" d="M3132.3,625.2v1279.1c0-118.1-78-236.2-234.1-326.3c-312.1-180.2-818.2-180.2-1130.3,0
			c-156.1,90.1-234.1,208.2-234.1,326.3V625.2c0-104,60.5-208,181.5-292.8c16.4-11.5,34-22.7,52.6-33.5
			c114.2-65.9,254.3-107.7,401.4-125.4c255-30.7,530.9,11.1,728.9,125.4C3054.2,389,3132.3,507.1,3132.3,625.2z"/>
		<path fill="#A553C0" d="M3132.3,626.8v1279.1c0-118.1-78-236.2-234.1-326.3c-312.1-180.2-818.2-180.2-1130.3,0
			c-156.1,90.1-234.1,208.2-234.1,326.3V626.8c0-104,60.5-208,181.5-292.8c16.4-11.5,34-22.7,52.6-33.5
			c114.2-65.9,254.3-107.7,401.4-125.4c255-30.7,530.9,11.1,728.9,125.4C3054.2,390.6,3132.3,508.7,3132.3,626.8z"/>
		<path fill="#A654C1" d="M3132.3,628.4v1279.1c0-118.1-78-236.2-234.1-326.3c-312.1-180.2-818.2-180.2-1130.3,0
			c-156.1,90.1-234.1,208.2-234.1,326.3V628.4c0-104,60.5-208,181.5-292.8c16.4-11.5,34-22.7,52.6-33.5
			c114.2-65.9,254.3-107.7,401.4-125.4c255-30.7,530.9,11.1,728.9,125.4C3054.2,392.3,3132.3,510.3,3132.3,628.4z"/>
		<path fill="#A754C2" d="M3132.3,630v1279.1c0-118.1-78-236.2-234.1-326.3c-312.1-180.2-818.2-180.2-1130.3,0
			c-156.1,90.1-234.1,208.2-234.1,326.3V630c0-104,60.5-208,181.5-292.8c16.4-11.5,34-22.7,52.6-33.5
			c114.2-65.9,254.3-107.7,401.4-125.4c255-30.7,530.9,11.1,728.9,125.4C3054.2,393.9,3132.3,511.9,3132.3,630z"/>
		<path fill="#A755C3" d="M3132.3,631.6v1279.1c0-118.1-78-236.2-234.1-326.3c-312.1-180.2-818.2-180.2-1130.3,0
			c-156.1,90.1-234.1,208.2-234.1,326.3V631.6c0-104,60.5-208,181.5-292.8c16.4-11.5,34-22.7,52.6-33.5
			c114.2-65.9,254.3-107.7,401.4-125.4c255-30.7,530.9,11.1,728.9,125.4C3054.2,395.5,3132.3,513.6,3132.3,631.6z"/>
		<path fill="#A855C4" d="M3132.3,633.3v1279.1c0-118.1-78-236.2-234.1-326.3c-312.1-180.2-818.2-180.2-1130.3,0
			c-156.1,90.1-234.1,208.2-234.1,326.3V633.3c0-104,60.5-208,181.5-292.8c16.4-11.5,34-22.7,52.6-33.5
			c114.2-65.9,254.3-107.7,401.4-125.4c255-30.7,530.9,11.1,728.9,125.4C3054.2,397.1,3132.3,515.2,3132.3,633.3z"/>
		<path fill="#A956C5" d="M3132.3,634.9v1279.1c0-118.1-78-236.2-234.1-326.3c-312.1-180.2-818.2-180.2-1130.3,0
			c-156.1,90.1-234.1,208.2-234.1,326.3V634.9c0-104,60.5-208,181.5-292.8c16.4-11.5,34-22.7,52.6-33.5
			c114.2-65.9,254.3-107.7,401.4-125.4c255-30.7,530.9,11.1,728.9,125.4C3054.2,398.7,3132.3,516.8,3132.3,634.9z"/>
		<path fill="#AA56C6" d="M3132.3,636.5v1279.1c0-118.1-78-236.2-234.1-326.3c-312.1-180.2-818.2-180.2-1130.3,0
			c-156.1,90.1-234.1,208.2-234.1,326.3V636.5c0-104,60.5-208,181.5-292.8c16.4-11.5,34-22.7,52.6-33.5
			c114.2-65.9,254.3-107.7,401.4-125.4c255-30.7,530.9,11.1,728.9,125.4C3054.2,400.3,3132.3,518.4,3132.3,636.5z"/>
		<path fill="#AB57C7" d="M3132.3,638.1v1279.1c0-118.1-78-236.2-234.1-326.3c-312.1-180.2-818.2-180.2-1130.3,0
			c-156.1,90.1-234.1,208.2-234.1,326.3V638.1c0-104,60.5-208,181.5-292.8c16.4-11.5,34-22.7,52.6-33.5
			c114.2-65.9,254.3-107.7,401.4-125.4c255-30.7,530.9,11.1,728.9,125.4C3054.2,401.9,3132.3,520,3132.3,638.1z"/>
		<path fill="#AC57C8" d="M3132.3,639.7v1279.1c0-118.1-78-236.2-234.1-326.3c-312.1-180.2-818.2-180.2-1130.3,0
			c-156.1,90.1-234.1,208.2-234.1,326.3V639.7c0-104,60.5-208,181.5-292.8c16.4-11.5,34-22.7,52.6-33.5
			c114.2-65.9,254.3-107.7,401.4-125.4c255-30.7,530.9,11.1,728.9,125.4C3054.2,403.5,3132.3,521.6,3132.3,639.7z"/>
		<path fill="#AC58C9" d="M3132.3,641.3v1279.1c0-118.1-78-236.2-234.1-326.3c-312.1-180.2-818.2-180.2-1130.3,0
			c-156.1,90.1-234.1,208.2-234.1,326.3V641.3c0-104,60.5-208,181.5-292.8c16.4-11.5,34-22.7,52.6-33.5
			c114.2-65.9,254.3-107.7,401.4-125.4c255-30.7,530.9,11.1,728.9,125.4C3054.2,405.1,3132.3,523.2,3132.3,641.3z"/>
		<path fill="#AD58CA" d="M3132.3,642.9V1922c0-118.1-78-236.2-234.1-326.3c-312.1-180.2-818.2-180.2-1130.3,0
			c-156.1,90.1-234.1,208.2-234.1,326.3V642.9c0-104,60.5-208,181.5-292.8c16.4-11.5,34-22.7,52.6-33.5
			c114.2-65.9,254.3-107.7,401.4-125.4c255-30.7,530.9,11.1,728.9,125.4C3054.2,406.7,3132.3,524.8,3132.3,642.9z"/>
		<path fill="#AE59CB" d="M3132.3,644.5v1279.1c0-118.1-78-236.2-234.1-326.3c-312.1-180.2-818.2-180.2-1130.3,0
			c-156.1,90.1-234.1,208.2-234.1,326.3V644.5c0-104,60.5-208,181.5-292.8c16.4-11.5,34-22.7,52.6-33.5
			c114.2-65.9,254.3-107.7,401.4-125.4c255-30.7,530.9,11.1,728.9,125.4C3054.2,408.3,3132.3,526.4,3132.3,644.5z"/>
		<path fill="#AF59CC" d="M3132.3,646.1v1279.1c0-118.1-78-236.2-234.1-326.3c-312.1-180.2-818.2-180.2-1130.3,0
			c-156.1,90.1-234.1,208.2-234.1,326.3V646.1c0-104,60.5-208,181.5-292.8c16.4-11.5,34-22.7,52.6-33.5
			c114.2-65.9,254.3-107.7,401.4-125.4c255-30.7,530.9,11.1,728.9,125.4C3054.2,409.9,3132.3,528,3132.3,646.1z"/>
		<path fill="#B05ACD" d="M3132.3,647.7v1279.1c0-118.1-78-236.2-234.1-326.3c-312.1-180.2-818.2-180.2-1130.3,0
			c-156.1,90.1-234.1,208.2-234.1,326.3V647.7c0-104,60.5-208,181.5-292.8c16.4-11.5,34-22.7,52.6-33.5
			c114.2-65.9,254.3-107.7,401.4-125.4c255-30.7,530.9,11.1,728.9,125.4C3054.2,411.5,3132.3,529.6,3132.3,647.7z"/>
		<path fill="#B15ACE" d="M3132.3,649.3v1279.1c0-118.1-78-236.2-234.1-326.3c-312.1-180.2-818.2-180.2-1130.3,0
			c-156.1,90.1-234.1,208.2-234.1,326.3V649.3c0-104,60.5-208,181.5-292.8c16.4-11.5,34-22.7,52.6-33.5
			c114.2-65.9,254.3-107.7,401.4-125.4c255-30.7,530.9,11.1,728.9,125.4C3054.2,413.1,3132.3,531.2,3132.3,649.3z"/>
		<path fill="#B15BCF" d="M3132.3,650.9V1930c0-118.1-78-236.2-234.1-326.3c-312.1-180.2-818.2-180.2-1130.3,0
			c-156.1,90.1-234.1,208.2-234.1,326.3V650.9c0-104,60.5-208,181.5-292.8c16.4-11.5,34-22.7,52.6-33.5
			c114.2-65.9,254.3-107.7,401.4-125.4c255-30.7,530.9,11.1,728.9,125.4C3054.2,414.7,3132.3,532.8,3132.3,650.9z"/>
		<path fill="#B25BD0" d="M3132.3,652.5v1279.1c0-118.1-78-236.2-234.1-326.3c-312.1-180.2-818.2-180.2-1130.3,0
			c-156.1,90.1-234.1,208.2-234.1,326.3V652.5c0-104,60.5-208,181.5-292.8c16.4-11.5,34-22.7,52.6-33.5
			c114.2-65.9,254.3-107.7,401.4-125.4c255-30.7,530.9,11.1,728.9,125.4C3054.2,416.3,3132.3,534.4,3132.3,652.5z"/>
		<path fill="#B35CD1" d="M3132.3,654.1v1279.1c0-118.1-78-236.2-234.1-326.3c-312.1-180.2-818.2-180.2-1130.3,0
			c-156.1,90.1-234.1,208.2-234.1,326.3V654.1c0-104,60.5-208,181.5-292.8c16.4-11.5,34-22.7,52.6-33.5
			c114.2-65.9,254.3-107.7,401.4-125.4c255-30.7,530.9,11.1,728.9,125.4C3054.2,417.9,3132.3,536,3132.3,654.1z"/>
		<path fill="#B45CD2" d="M3132.3,655.7v1279.1c0-118.1-78-236.2-234.1-326.3c-312.1-180.2-818.2-180.2-1130.3,0
			c-156.1,90.1-234.1,208.2-234.1,326.3V655.7c0-104,60.5-208,181.5-292.8c16.4-11.5,34-22.7,52.6-33.5
			c114.2-65.9,254.3-107.7,401.4-125.4c255-30.7,530.9,11.1,728.9,125.4C3054.2,419.6,3132.3,537.6,3132.3,655.7z"/>
		<path fill="#B55DD3" d="M3132.3,657.3v1279.1c0-118.1-78-236.2-234.1-326.3c-312.1-180.2-818.2-180.2-1130.3,0
			c-156.1,90.1-234.1,208.2-234.1,326.3V657.3c0-104,60.5-208,181.5-292.8c16.4-11.5,34-22.7,52.6-33.5
			c114.2-65.9,254.3-107.7,401.4-125.4c255-30.7,530.9,11.1,728.9,125.4C3054.2,421.2,3132.3,539.2,3132.3,657.3z"/>
		<path fill="#B65DD4" d="M3132.3,658.9V1938c0-118.1-78-236.2-234.1-326.3c-312.1-180.2-818.2-180.2-1130.3,0
			c-156.1,90.1-234.1,208.2-234.1,326.3V658.9c0-104,60.5-208,181.5-292.8c16.4-11.5,34-22.7,52.6-33.5
			c114.2-65.9,254.3-107.7,401.4-125.4c255-30.7,530.9,11.1,728.9,125.4C3054.2,422.8,3132.3,540.8,3132.3,658.9z"/>
		<path fill="#B65ED5" d="M3132.3,660.6v1279.1c0-118.1-78-236.2-234.1-326.3c-312.1-180.2-818.2-180.2-1130.3,0
			c-156.1,90.1-234.1,208.2-234.1,326.3V660.6c0-104,60.5-208,181.5-292.8c16.4-11.5,34-22.7,52.6-33.5
			c114.2-65.9,254.3-107.7,401.4-125.4c255-30.7,530.9,11.1,728.9,125.4C3054.2,424.4,3132.3,542.5,3132.3,660.6z"/>
		<path fill="#B75ED6" d="M3132.3,662.2v1279.1c0-118.1-78-236.2-234.1-326.3c-312.1-180.2-818.2-180.2-1130.3,0
			c-156.1,90.1-234.1,208.2-234.1,326.3V662.2c0-104,60.5-208,181.5-292.8c16.4-11.5,34-22.7,52.6-33.5
			c114.2-65.9,254.3-107.7,401.4-125.4c255-30.7,530.9,11.1,728.9,125.4C3054.2,426,3132.3,544.1,3132.3,662.2z"/>
		<path fill="#B85FD7" d="M3132.3,663.8v1279.1c0-118.1-78-236.2-234.1-326.3c-312.1-180.2-818.2-180.2-1130.3,0
			c-156.1,90.1-234.1,208.2-234.1,326.3V663.8c0-104,60.5-208,181.5-292.8c16.4-11.5,34-22.7,52.6-33.5
			c114.2-65.9,254.3-107.7,401.4-125.4c255-30.7,530.9,11.1,728.9,125.4C3054.2,427.6,3132.3,545.7,3132.3,663.8z"/>
		<path fill="#B95FD8" d="M3132.3,665.4v1279.1c0-118.1-78-236.2-234.1-326.3c-312.1-180.2-818.2-180.2-1130.3,0
			c-156.1,90.1-234.1,208.2-234.1,326.3V665.4c0-104,60.5-208,181.5-292.8c16.4-11.5,34-22.7,52.6-33.5
			c114.2-65.9,254.3-107.7,401.4-125.4c255-30.7,530.9,11.1,728.9,125.4C3054.2,429.2,3132.3,547.3,3132.3,665.4z"/>
		<path fill="#BA60D9" d="M3132.3,667v1279.1c0-118.1-78-236.2-234.1-326.3c-312.1-180.2-818.2-180.2-1130.3,0
			c-156.1,90.1-234.1,208.2-234.1,326.3V667c0-104,60.5-208,181.5-292.8c16.4-11.5,34-22.7,52.6-33.5
			c114.2-65.9,254.3-107.7,401.4-125.4c255-30.7,530.9,11.1,728.9,125.4C3054.2,430.8,3132.3,548.9,3132.3,667z"/>
		<path fill="#BA60DA" d="M3132.3,668.6v1279.1c0-118.1-78-236.2-234.1-326.3c-312.1-180.2-818.2-180.2-1130.3,0
			c-156.1,90.1-234.1,208.2-234.1,326.3V668.6c0-104,60.5-208,181.5-292.8c16.4-11.5,34-22.7,52.6-33.5
			c114.2-65.9,254.3-107.7,401.4-125.4c255-30.7,530.9,11.1,728.9,125.4C3054.2,432.4,3132.3,550.5,3132.3,668.6z"/>
		<path fill="#BB61DB" d="M3132.3,670.2v1279.1c0-118.1-78-236.2-234.1-326.3c-312.1-180.2-818.2-180.2-1130.3,0
			c-156.1,90.1-234.1,208.2-234.1,326.3V670.2c0-104,60.5-208,181.5-292.8c16.4-11.5,34-22.7,52.6-33.5
			c114.2-65.9,254.3-107.7,401.4-125.4c255-30.7,530.9,11.1,728.9,125.4C3054.2,434,3132.3,552.1,3132.3,670.2z"/>
		<path fill="#BC61DC" d="M3132.3,671.8v1279.1c0-118.1-78-236.2-234.1-326.3c-312.1-180.2-818.2-180.2-1130.3,0
			c-156.1,90.1-234.1,208.2-234.1,326.3V671.8c0-104,60.5-208,181.5-292.8c16.4-11.5,34-22.7,52.6-33.5
			c114.2-65.9,254.3-107.7,401.4-125.4c255-30.7,530.9,11.1,728.9,125.4C3054.2,435.6,3132.3,553.7,3132.3,671.8z"/>
		<path fill="#BD62DD" d="M3132.3,673.4v1279.1c0-118.1-78-236.2-234.1-326.3c-312.1-180.2-818.2-180.2-1130.3,0
			c-156.1,90.1-234.1,208.2-234.1,326.3V673.4c0-104,60.5-208,181.5-292.8c16.4-11.5,34-22.7,52.6-33.5
			c114.2-65.9,254.3-107.7,401.4-125.4c255-30.7,530.9,11.1,728.9,125.4C3054.2,437.2,3132.3,555.3,3132.3,673.4z"/>
		<path fill="#BE62DE" d="M3132.3,675v1279.1c0-118.1-78-236.2-234.1-326.3c-312.1-180.2-818.2-180.2-1130.3,0
			c-156.1,90.1-234.1,208.2-234.1,326.3V675c0-104,60.5-208,181.5-292.8c16.4-11.5,34-22.7,52.6-33.5
			c114.2-65.9,254.3-107.7,401.4-125.4c255-30.7,530.9,11.1,728.9,125.4C3054.2,438.8,3132.3,556.9,3132.3,675z"/>
		<path fill="#BF63DF" d="M3132.3,676.6v1279.1c0-118.1-78-236.2-234.1-326.3c-312.1-180.2-818.2-180.2-1130.3,0
			c-156.1,90.1-234.1,208.2-234.1,326.3V676.6c0-104,60.5-208,181.5-292.8c16.4-11.5,34-22.7,52.6-33.5
			c114.2-65.9,254.3-107.7,401.4-125.4c255-30.7,530.9,11.1,728.9,125.4C3054.2,440.4,3132.3,558.5,3132.3,676.6z"/>
		<path fill="#BF63E0" d="M3132.3,678.2v1279.1c0-118.1-78-236.2-234.1-326.3c-312.1-180.2-818.2-180.2-1130.3,0
			c-156.1,90.1-234.1,208.2-234.1,326.3V678.2c0-104,60.5-208,181.5-292.8c16.4-11.5,34-22.7,52.6-33.5
			c114.2-65.9,254.3-107.7,401.4-125.4c255-30.7,530.9,11.1,728.9,125.4C3054.2,442,3132.3,560.1,3132.3,678.2z"/>
		<path fill="#C064E1" d="M3132.3,679.8v1279.1c0-118.1-78-236.2-234.1-326.3c-312.1-180.2-818.2-180.2-1130.3,0
			c-156.1,90.1-234.1,208.2-234.1,326.3V679.8c0-104,60.5-208,181.5-292.8c16.4-11.5,34-22.7,52.6-33.5
			c114.2-65.9,254.3-107.7,401.4-125.4c255-30.7,530.9,11.1,728.9,125.4C3054.2,443.6,3132.3,561.7,3132.3,679.8z"/>
		<path fill="#C164E2" d="M3132.3,681.4v1279.1c0-118.1-78-236.2-234.1-326.3c-312.1-180.2-818.2-180.2-1130.3,0
			c-156.1,90.1-234.1,208.2-234.1,326.3V681.4c0-104,60.5-208,181.5-292.8c16.4-11.5,34-22.7,52.6-33.5
			c114.2-65.9,254.3-107.7,401.4-125.4c255-30.7,530.9,11.1,728.9,125.4C3054.2,445.2,3132.3,563.3,3132.3,681.4z"/>
		<path fill="#C265E3" d="M3132.3,683v1279.1c0-118.1-78-236.2-234.1-326.3c-312.1-180.2-818.2-180.2-1130.3,0
			c-156.1,90.1-234.1,208.2-234.1,326.3V683c0-104,60.5-208,181.5-292.8c16.4-11.5,34-22.7,52.6-33.5
			c114.2-65.9,254.3-107.7,401.4-125.4c255-30.7,530.9,11.1,728.9,125.4C3054.2,446.8,3132.3,564.9,3132.3,683z"/>
		<path fill="#C365E4" d="M3132.3,684.6v1279.1c0-118.1-78-236.2-234.1-326.3c-312.1-180.2-818.2-180.2-1130.3,0
			c-156.1,90.1-234.1,208.2-234.1,326.3V684.6c0-104,60.5-208,181.5-292.8c16.4-11.5,34-22.7,52.6-33.5
			c114.2-65.9,254.3-107.7,401.4-125.4c255-30.7,530.9,11.1,728.9,125.4C3054.2,448.5,3132.3,566.5,3132.3,684.6z"/>
		<path fill="#C466E5" d="M3132.3,686.2v1279.1c0-118.1-78-236.2-234.1-326.3c-312.1-180.2-818.2-180.2-1130.3,0
			c-156.1,90.1-234.1,208.2-234.1,326.3V686.2c0-104,60.5-208,181.5-292.8c16.4-11.5,34-22.7,52.6-33.5
			c114.2-65.9,254.3-107.7,401.4-125.4c255-30.7,530.9,11.1,728.9,125.4C3054.2,450.1,3132.3,568.1,3132.3,686.2z"/>
		<path fill="#C466E6" d="M3132.3,687.8v1279.1c0-118.1-78-236.2-234.1-326.3c-312.1-180.2-818.2-180.2-1130.3,0
			c-156.1,90.1-234.1,208.2-234.1,326.3V687.8c0-104,60.5-208,181.5-292.8c16.4-11.5,34-22.7,52.6-33.5
			c114.2-65.9,254.3-107.7,401.4-125.4c255-30.7,530.9,11.1,728.9,125.4C3054.2,451.7,3132.3,569.8,3132.3,687.8z"/>
		<path fill="#C567E7" d="M3132.3,689.5v1279.1c0-118.1-78-236.2-234.1-326.3c-312.1-180.2-818.2-180.2-1130.3,0
			c-156.1,90.1-234.1,208.2-234.1,326.3V689.5c0-104,60.5-208,181.5-292.8c16.4-11.5,34-22.7,52.6-33.5
			c114.2-65.9,254.3-107.7,401.4-125.4c255-30.7,530.9,11.1,728.9,125.4C3054.2,453.3,3132.3,571.4,3132.3,689.5z"/>
		<path fill="#C667E8" d="M3132.3,691.1v1279.1c0-118.1-78-236.2-234.1-326.3c-312.1-180.2-818.2-180.2-1130.3,0
			c-156.1,90.1-234.1,208.2-234.1,326.3V691.1c0-104,60.5-208,181.5-292.8c16.4-11.5,34-22.7,52.6-33.5
			c114.2-65.9,254.3-107.7,401.4-125.4c255-30.7,530.9,11.1,728.9,125.4C3054.2,454.9,3132.3,573,3132.3,691.1z"/>
		<path fill="#C768E9" d="M3132.3,692.7v1279.1c0-118.1-78-236.2-234.1-326.3c-312.1-180.2-818.2-180.2-1130.3,0
			c-156.1,90.1-234.1,208.2-234.1,326.3V692.7c0-104,60.5-208,181.5-292.8c16.4-11.5,34-22.7,52.6-33.5
			c114.2-65.9,254.3-107.7,401.4-125.4c255-30.7,530.9,11.1,728.9,125.4C3054.2,456.5,3132.3,574.6,3132.3,692.7z"/>
		<path fill="#C868EA" d="M3132.3,694.3v1279.1c0-118.1-78-236.2-234.1-326.3c-312.1-180.2-818.2-180.2-1130.3,0
			c-156.1,90.1-234.1,208.2-234.1,326.3V694.3c0-104,60.5-208,181.5-292.8c16.4-11.5,34-22.7,52.6-33.5
			c114.2-65.9,254.3-107.7,401.4-125.4c255-30.7,530.9,11.1,728.9,125.4C3054.2,458.1,3132.3,576.2,3132.3,694.3z"/>
		<path fill="#C869EB" d="M3132.3,695.9V1975c0-118.1-78-236.2-234.1-326.3c-312.1-180.2-818.2-180.2-1130.3,0
			c-156.1,90.1-234.1,208.2-234.1,326.3V695.9c0-104,60.5-208,181.5-292.8c16.4-11.5,34-22.7,52.6-33.5
			c114.2-65.9,254.3-107.7,401.4-125.4c255-30.7,530.9,11.1,728.9,125.4C3054.2,459.7,3132.3,577.8,3132.3,695.9z"/>
		<path fill="#C969EC" d="M3132.3,697.5v1279.1c0-118.1-78-236.2-234.1-326.3c-312.1-180.2-818.2-180.2-1130.3,0
			c-156.1,90.1-234.1,208.2-234.1,326.3V697.5c0-104,60.5-208,181.5-292.8c16.4-11.5,34-22.7,52.6-33.5
			c114.2-65.9,254.3-107.7,401.4-125.4c255-30.7,530.9,11.1,728.9,125.4C3054.2,461.3,3132.3,579.4,3132.3,697.5z"/>
		<path fill="#CA6AED" d="M3132.3,699.1v1279.1c0-118.1-78-236.2-234.1-326.3c-312.1-180.2-818.2-180.2-1130.3,0
			c-156.1,90.1-234.1,208.2-234.1,326.3V699.1c0-104,60.5-208,181.5-292.8c16.4-11.5,34-22.7,52.6-33.5
			c114.2-65.9,254.3-107.7,401.4-125.4c255-30.7,530.9,11.1,728.9,125.4C3054.2,462.9,3132.3,581,3132.3,699.1z"/>
		<path fill="#CB6AEE" d="M3132.3,700.7v1279.1c0-118.1-78-236.2-234.1-326.3c-312.1-180.2-818.2-180.2-1130.3,0
			c-156.1,90.1-234.1,208.2-234.1,326.3V700.7c0-104,60.5-208,181.5-292.8c16.4-11.5,34-22.7,52.6-33.5
			c114.2-65.9,254.3-107.7,401.4-125.4c255-30.7,530.9,11.1,728.9,125.4C3054.2,464.5,3132.3,582.6,3132.3,700.7z"/>
		<path fill="#CC6BEF" d="M3132.3,702.3v1279.1c0-118.1-78-236.2-234.1-326.3c-312.1-180.2-818.2-180.2-1130.3,0
			c-156.1,90.1-234.1,208.2-234.1,326.3V702.3c0-104,60.5-208,181.5-292.8c16.4-11.5,34-22.7,52.6-33.5
			c114.2-65.9,254.3-107.7,401.4-125.4c255-30.7,530.9,11.1,728.9,125.4C3054.2,466.1,3132.3,584.2,3132.3,702.3z"/>
		<path fill="#CD6BF0" d="M3132.3,703.9V1983c0-118.1-78-236.2-234.1-326.3c-312.1-180.2-818.2-180.2-1130.3,0
			c-156.1,90.1-234.1,208.2-234.1,326.3V703.9c0-104,60.5-208,181.5-292.8c16.4-11.5,34-22.7,52.6-33.5
			c114.2-65.9,254.3-107.7,401.4-125.4c255-30.7,530.9,11.1,728.9,125.4C3054.2,467.7,3132.3,585.8,3132.3,703.9z"/>
		<path fill="#CD6CF1" d="M3132.3,705.5v1279.1c0-118.1-78-236.2-234.1-326.3c-312.1-180.2-818.2-180.2-1130.3,0
			c-156.1,90.1-234.1,208.2-234.1,326.3V705.5c0-104,60.5-208,181.5-292.8c16.4-11.5,34-22.7,52.6-33.5
			c114.2-65.9,254.3-107.7,401.4-125.4c255-30.7,530.9,11.1,728.9,125.4C3054.2,469.3,3132.3,587.4,3132.3,705.5z"/>
		<path fill="#CE6CF2" d="M3132.3,707.1v1279.1c0-118.1-78-236.2-234.1-326.3c-312.1-180.2-818.2-180.2-1130.3,0
			c-156.1,90.1-234.1,208.2-234.1,326.3V707.1c0-104,60.5-208,181.5-292.8c16.4-11.5,34-22.7,52.6-33.5
			c114.2-65.9,254.3-107.7,401.4-125.4c255-30.7,530.9,11.1,728.9,125.4C3054.2,470.9,3132.3,589,3132.3,707.1z"/>
		<path fill="#CF6DF3" d="M3132.3,708.7v1279.1c0-118.1-78-236.2-234.1-326.3c-312.1-180.2-818.2-180.2-1130.3,0
			c-156.1,90.1-234.1,208.2-234.1,326.3V708.7c0-104,60.5-208,181.5-292.8c16.4-11.5,34-22.7,52.6-33.5
			c114.2-65.9,254.3-107.7,401.4-125.4c255-30.7,530.9,11.1,728.9,125.4C3054.2,472.5,3132.3,590.6,3132.3,708.7z"/>
		<path fill="#D06DF4" d="M3132.3,710.3v1279.1c0-118.1-78-236.2-234.1-326.3c-312.1-180.2-818.2-180.2-1130.3,0
			c-156.1,90.1-234.1,208.2-234.1,326.3V710.3c0-104,60.5-208,181.5-292.8c16.4-11.5,34-22.7,52.6-33.5
			c114.2-65.9,254.3-107.7,401.4-125.4c255-30.7,530.9,11.1,728.9,125.4C3054.2,474.1,3132.3,592.2,3132.3,710.3z"/>
		<path fill="#D16EF5" d="M3132.3,711.9V1991c0-118.1-78-236.2-234.1-326.3c-312.1-180.2-818.2-180.2-1130.3,0
			c-156.1,90.1-234.1,208.2-234.1,326.3V711.9c0-104,60.5-208,181.5-292.8c16.4-11.5,34-22.7,52.6-33.5
			c114.2-65.9,254.3-107.7,401.4-125.4c255-30.7,530.9,11.1,728.9,125.4C3054.2,475.8,3132.3,593.8,3132.3,711.9z"/>
		<path fill="#D26EF6" d="M3132.3,713.5v1279.1c0-118.1-78-236.2-234.1-326.3c-312.1-180.2-818.2-180.2-1130.3,0
			c-156.1,90.1-234.1,208.2-234.1,326.3V713.5c0-104,60.5-208,181.5-292.8c16.4-11.5,34-22.7,52.6-33.5
			c114.2-65.9,254.3-107.7,401.4-125.4c255-30.7,530.9,11.1,728.9,125.4C3054.2,477.4,3132.3,595.4,3132.3,713.5z"/>
		<path fill="#D26FF7" d="M3132.3,715.1v1279.1c0-118.1-78-236.2-234.1-326.3c-312.1-180.2-818.2-180.2-1130.3,0
			c-156.1,90.1-234.1,208.2-234.1,326.3V715.1c0-104,60.5-208,181.5-292.8c16.4-11.5,34-22.7,52.6-33.5
			c114.2-65.9,254.3-107.7,401.4-125.4c255-30.7,530.9,11.1,728.9,125.4C3054.2,479,3132.3,597,3132.3,715.1z"/>
		<path fill="#D36FF8" d="M3132.3,716.8v1279.1c0-118.1-78-236.2-234.1-326.3c-312.1-180.2-818.2-180.2-1130.3,0
			c-156.1,90.1-234.1,208.2-234.1,326.3V716.8c0-104,60.5-208,181.5-292.8c16.4-11.5,34-22.7,52.6-33.5
			c114.2-65.9,254.3-107.7,401.4-125.4c255-30.7,530.9,11.1,728.9,125.4C3054.2,480.6,3132.3,598.7,3132.3,716.8z"/>
		<path fill="#D470F9" d="M3132.3,718.4v1279.1c0-118.1-78-236.2-234.1-326.3c-312.1-180.2-818.2-180.2-1130.3,0
			c-156.1,90.1-234.1,208.2-234.1,326.3V718.4c0-104,60.5-208,181.5-292.8c16.4-11.5,34-22.7,52.6-33.5
			c114.2-65.9,254.3-107.7,401.4-125.4c255-30.7,530.9,11.1,728.9,125.4C3054.2,482.2,3132.3,600.3,3132.3,718.4z"/>
		<path fill="#D570FA" d="M3132.3,720V1999c0-118.1-78-236.2-234.1-326.3c-312.1-180.2-818.2-180.2-1130.3,0
			c-156.1,90.1-234.1,208.2-234.1,326.3V720c0-104,60.5-208,181.5-292.8c16.4-11.5,34-22.7,52.6-33.5
			c114.2-65.9,254.3-107.7,401.4-125.4c255-30.7,530.9,11.1,728.9,125.4C3054.2,483.8,3132.3,601.9,3132.3,720z"/>
		<path fill="#D671FB" d="M3132.3,721.6v1279.1c0-118.1-78-236.2-234.1-326.3c-312.1-180.2-818.2-180.2-1130.3,0
			c-156.1,90.1-234.1,208.2-234.1,326.3V721.6c0-104,60.5-208,181.5-292.8c16.4-11.5,34-22.7,52.6-33.5
			c114.2-65.9,254.3-107.7,401.4-125.4c255-30.7,530.9,11.1,728.9,125.4C3054.2,485.4,3132.3,603.5,3132.3,721.6z"/>
		<path fill="#D771FC" d="M3132.3,723.2v1279.1c0-118.1-78-236.2-234.1-326.3c-312.1-180.2-818.2-180.2-1130.3,0
			c-156.1,90.1-234.1,208.2-234.1,326.3V723.2c0-104,60.5-208,181.5-292.8c16.4-11.5,34-22.7,52.6-33.5
			c114.2-65.9,254.3-107.7,401.4-125.4c255-30.7,530.9,11.1,728.9,125.4C3054.2,487,3132.3,605.1,3132.3,723.2z"/>
		<path fill="#D772FD" d="M3132.3,724.8v1279.1c0-118.1-78-236.2-234.1-326.3c-312.1-180.2-818.2-180.2-1130.3,0
			c-156.1,90.1-234.1,208.2-234.1,326.3V724.8c0-104,60.5-208,181.5-292.8c16.4-11.5,34-22.7,52.6-33.5
			c114.2-65.9,254.3-107.7,401.4-125.4c255-30.7,530.9,11.1,728.9,125.4C3054.2,488.6,3132.3,606.7,3132.3,724.8z"/>
		<path fill="#D872FE" d="M3132.3,726.4v1279.1c0-118.1-78-236.2-234.1-326.3c-312.1-180.2-818.2-180.2-1130.3,0
			c-156.1,90.1-234.1,208.2-234.1,326.3V726.4c0-104,60.5-208,181.5-292.8c16.4-11.5,34-22.7,52.6-33.5
			c114.2-65.9,254.3-107.7,401.4-125.4c255-30.7,530.9,11.1,728.9,125.4C3054.2,490.2,3132.3,608.3,3132.3,726.4z"/>
		<path fill="#D973FF" d="M3132.3,728v1279.1c0-118.1-78-236.2-234.1-326.3c-312.1-180.2-818.2-180.2-1130.3,0
			c-156.1,90.1-234.1,208.2-234.1,326.3V728c0-104,60.5-208,181.5-292.8c16.4-11.5,34-22.7,52.6-33.5
			c114.2-65.9,254.3-107.7,401.4-125.4c255-30.7,530.9,11.1,728.9,125.4C3054.2,491.8,3132.3,609.9,3132.3,728z"/>
	</g>
	<path fill="#EEF2FF" d="M1711.1,967.3v-404l1.8-1.2c16.5-11.6,34.3-22.9,52.9-33.7c110.9-64,250.3-107.6,403-125.9l4.6-0.6v402.2
		l-3.6,0.4c-151.7,18.2-289.9,61.4-399.9,124.9c-18.4,10.6-36,21.8-52.3,33.3L1711.1,967.3z M1719.4,567.7v383.9
		c14.7-10,30.3-19.8,46.4-29.2c110-63.5,248-106.9,399.4-125.5V411.3c-149.9,18.5-286.4,61.5-395.3,124.3
		C1752.2,545.9,1735.2,556.7,1719.4,567.7z"/>
	<path fill="#EEF2FF" d="M1711.1,1260.4v-222.8l1.8-1.2c16.5-11.6,34.3-22.9,52.9-33.7c110.9-64,250.3-107.6,403-125.9l4.6-0.6v221
		l-3.6,0.4c-151.7,18.2-289.9,61.4-399.9,124.9c-18.4,10.6-36,21.8-52.3,33.3L1711.1,1260.4z M1719.4,1041.9v202.7
		c14.7-10,30.3-19.8,46.4-29.2c110-63.5,248-106.9,399.4-125.5V885.5c-149.9,18.5-286.4,61.5-395.3,124.3
		C1752.2,1020.1,1735.2,1030.8,1719.4,1041.9z"/>
	<g>
		<path fill="#EEF2FF" d="M2114.7,932.3v30.6c-107,12.9-209,43.3-292,91.2c-13.6,7.8-26.3,16-38.3,24.3v-30.6
			c11.9-8.4,24.7-16.5,38.3-24.3C1905.7,975.6,2007.7,945.2,2114.7,932.3z"/>
		<path fill="#EEF2FF" d="M1971.2,1012.1v30.5c-53.6,15.6-103.8,36.4-148.5,62.2c-13.6,7.8-26.3,16-38.3,24.3v-30.6
			c12-8.4,24.7-16.5,38.3-24.3C1867.4,1048.5,1917.6,1027.7,1971.2,1012.1z"/>
		<path fill="#EEF2FF" d="M2025.1,1048.9v30.6c-73.8,16.3-143,41.7-202.4,76c-13.6,7.8-26.3,16-38.3,24.3v-30.6
			c12-8.4,24.7-16.5,38.3-24.3C1882.1,1090.6,1951.3,1065.3,2025.1,1048.9z"/>
	</g>
	<path fill="#EEF2FF" d="M1711.1,1623.4v-302.2l1.8-1.2c16.5-11.6,34.3-22.9,52.9-33.7c110.9-64,250.3-107.6,403-125.9l4.6-0.6
		v300.5l-3.6,0.4c-151.7,18.2-289.9,61.4-399.9,124.9c-18.4,10.6-36,21.8-52.3,33.3L1711.1,1623.4z M1719.4,1325.4v282.2
		c14.7-10,30.3-19.8,46.4-29.2c110-63.5,248-106.9,399.4-125.5v-283.9c-149.9,18.5-286.4,61.5-395.3,124.3
		C1752.2,1303.6,1735.2,1314.4,1719.4,1325.4z"/>
	<path fill="#EEF2FF" d="M2951.7,956.8l-6.5-4.5c-16.3-11.5-33.9-22.7-52.3-33.3c-109.9-63.5-248.2-106.7-399.9-124.9l-3.6-0.4
		V391.4l4.6,0.6c152.8,18.4,292.1,61.9,403,125.9c18.6,10.7,36.4,22.1,52.9,33.7l1.8,1.2V956.8z M2497.7,786.3
		c151.3,18.6,289.4,62,399.4,125.5c16.2,9.3,31.8,19.1,46.4,29.2V557.1c-15.8-11-32.8-21.8-50.6-32
		c-108.8-62.8-245.4-105.8-395.3-124.3V786.3z"/>
	<path fill="#EEF2FF" d="M2951.7,1249.8l-6.5-4.5c-16.3-11.5-33.9-22.7-52.3-33.3c-109.9-63.5-248.2-106.7-399.9-124.9l-3.6-0.4
		v-221l4.6,0.6c152.8,18.4,292.1,61.9,403,125.9c18.6,10.7,36.4,22.1,52.9,33.7l1.8,1.2V1249.8z M2497.7,1079.4
		c151.3,18.6,289.4,62,399.4,125.5c16.2,9.3,31.8,19.1,46.4,29.2v-202.7c-15.8-11-32.8-21.8-50.6-32
		c-108.8-62.8-245.4-105.8-395.3-124.3V1079.4z"/>
	<linearGradient id="SVGID_11_" gradientUnits="userSpaceOnUse" x1="2520.6191" y1="978.4523" x2="2896.7053" y2="978.4523">
		<stop  offset="0" style="stop-color:#FFF875"/>
		<stop  offset="1" style="stop-color:#C99862"/>
	</linearGradient>
	<path fill="url(#SVGID_11_)" d="M2893.3,1042.5c-103-59.5-231.9-101.4-372.7-121.4l1-6.7c141.7,20.1,271.4,62.3,375.1,122.2
		L2893.3,1042.5z"/>
	<linearGradient id="SVGID_12_" gradientUnits="userSpaceOnUse" x1="2520.6191" y1="1039.3571" x2="2896.7053" y2="1039.3571">
		<stop  offset="0" style="stop-color:#8E75FF"/>
		<stop  offset="1" style="stop-color:#6269C9"/>
	</linearGradient>
	<path fill="url(#SVGID_12_)" d="M2893.3,1103.4c-103-59.5-231.9-101.4-372.7-121.4l1-6.7c141.7,20.1,271.4,62.3,375.1,122.2
		L2893.3,1103.4z"/>
	<linearGradient id="SVGID_13_" gradientUnits="userSpaceOnUse" x1="2520.6191" y1="1100.2616" x2="2896.7053" y2="1100.2616">
		<stop  offset="0" style="stop-color:#FF7886"/>
		<stop  offset="1" style="stop-color:#A1555B"/>
	</linearGradient>
	<path fill="url(#SVGID_13_)" d="M2893.3,1164.3c-103-59.5-231.9-101.4-372.7-121.4l1-6.7c141.7,20.1,271.4,62.3,375.1,122.2
		L2893.3,1164.3z"/>
	<path fill="#EEF2FF" d="M2951.7,1612.8l-6.5-4.5c-16.4-11.5-34-22.7-52.3-33.3c-109.9-63.5-248.2-106.7-399.9-124.9l-3.6-0.4
		v-300.5l4.6,0.6c152.8,18.4,292.1,61.9,403,125.9c18.6,10.7,36.4,22.1,52.9,33.7l1.8,1.2V1612.8z M2497.7,1442.4
		c151.3,18.6,289.4,62,399.4,125.5c16.2,9.3,31.8,19.1,46.4,29.2v-282.2c-15.8-11-32.8-21.8-50.6-32
		c-108.8-62.8-245.4-105.8-395.3-124.3V1442.4z"/>
	<path fill="#EEF2FF" d="M2399.8,1448.5h-133.6V379.8h133.6V1448.5z M2274.2,1440.5h117.6V387.8h-117.6V1440.5z"/>
	<linearGradient id="SVGID_14_" gradientUnits="userSpaceOnUse" x1="1770.4891" y1="812.7582" x2="1822.6719" y2="812.7582">
		<stop  offset="0" style="stop-color:#FF7886"/>
		<stop  offset="1" style="stop-color:#A1555B"/>
	</linearGradient>
	<path fill="url(#SVGID_14_)" d="M1822.7,735.1V863c-17.9,8.6-35.3,17.7-52.2,27.4V762.5C1787.4,752.8,1804.8,743.7,1822.7,735.1z"
		/>
	<linearGradient id="SVGID_15_" gradientUnits="userSpaceOnUse" x1="1906.7354" y1="724.6956" x2="1958.9181" y2="724.6956">
		<stop  offset="0" style="stop-color:#FFF875"/>
		<stop  offset="1" style="stop-color:#C99862"/>
	</linearGradient>
	<path fill="url(#SVGID_15_)" d="M1958.9,621.6v188.6c-17.7,5.4-35.1,11.2-52.2,17.5V639.1C1923.8,632.9,1941.2,627,1958.9,621.6z"
		/>
	<linearGradient id="SVGID_16_" gradientUnits="userSpaceOnUse" x1="2046.3879" y1="645.4072" x2="2098.5706" y2="645.4072">
		<stop  offset="0" style="stop-color:#8E75FF"/>
		<stop  offset="1" style="stop-color:#6269C9"/>
	</linearGradient>
	<path fill="url(#SVGID_16_)" d="M2098.6,503.5V777c-17.6,3.1-35,6.5-52.2,10.4V513.9C2063.6,510,2081,506.6,2098.6,503.5z"/>
	<linearGradient id="SVGID_17_" gradientUnits="userSpaceOnUse" x1="1752.1804" y1="1386.2986" x2="2094.1602" y2="1386.2986">
		<stop  offset="0" style="stop-color:#FFF875"/>
		<stop  offset="1" style="stop-color:#C99862"/>
	</linearGradient>
	<path fill="url(#SVGID_17_)" d="M1759,1552.4c-1.2,0-2.3-0.3-3.4-0.9c-3.3-1.9-4.4-6-2.5-9.3l69.5-121.1c1-1.7,2.6-2.9,4.5-3.3
		c1.9-0.4,3.9,0,5.4,1.2l50.1,37l43-107.6c0.9-2.2,2.8-3.8,5.2-4.2c2.3-0.4,4.7,0.4,6.3,2.2l48.9,55.3l95.3-178
		c1.8-3.3,5.9-4.6,9.2-2.8c3.3,1.8,4.6,5.9,2.8,9.2l-99.9,186.7c-1.1,2-3,3.3-5.2,3.6c-2.2,0.3-4.4-0.6-5.9-2.3l-48.1-54.4
		l-42.2,105.5c-0.8,2-2.4,3.4-4.5,4c-2,0.6-4.2,0.2-5.9-1.1l-51.1-37.7l-65.7,114.5C1763.6,1551.2,1761.3,1552.4,1759,1552.4z"/>
	<g>
		<linearGradient id="SVGID_18_" gradientUnits="userSpaceOnUse" x1="2600.2563" y1="585.8852" x2="2708.7356" y2="585.8852">
			<stop  offset="0" style="stop-color:#FF7886"/>
			<stop  offset="1" style="stop-color:#A1555B"/>
		</linearGradient>
		<path fill="url(#SVGID_18_)" d="M2708.7,530.9v122.4l-108.4-62.7c0-0.9,0-1.7,0-2.6C2600.3,525.5,2647.8,501.7,2708.7,530.9z"/>
		<linearGradient id="SVGID_19_" gradientUnits="userSpaceOnUse" x1="2708.7356" y1="663.6488" x2="2840.908" y2="663.6488">
			<stop  offset="0" style="stop-color:#FFF875"/>
			<stop  offset="1" style="stop-color:#C99862"/>
		</linearGradient>
		<path fill="url(#SVGID_19_)" d="M2720.6,537.1c-4-2.3-8-4.4-11.9-6.3v122.4v117.1c3.9,2.6,7.8,5.1,11.9,7.4
			c65.5,37.8,118.8,16.2,120.3-48.1c0-0.9,0-1.8,0-2.7C2840.9,660.5,2787,575.5,2720.6,537.1z"/>
		<linearGradient id="SVGID_20_" gradientUnits="userSpaceOnUse" x1="2600.2976" y1="680.4839" x2="2708.7356" y2="680.4839">
			<stop  offset="0" style="stop-color:#8E75FF"/>
			<stop  offset="1" style="stop-color:#6269C9"/>
		</linearGradient>
		<path fill="url(#SVGID_20_)" d="M2708.7,653.3v117.1c-60.1-40.5-107.2-117.7-108.4-179.8L2708.7,653.3z"/>
	</g>
	<g>
		<linearGradient id="SVGID_21_" gradientUnits="userSpaceOnUse" x1="2842.1494" y1="1374.7097" x2="2874.1577" y2="1374.7097">
			<stop  offset="0" style="stop-color:#78FF8A"/>
			<stop  offset="1" style="stop-color:#56A155"/>
		</linearGradient>
		<path fill="url(#SVGID_21_)" d="M2874.2,1355.4c-4.6-2.6-9.2-5.2-13.9-7.6V1312h-4.2v33.6c-4.6-2.4-9.2-4.7-13.9-6.9v78.5
			c4.7,2.3,9.3,4.6,13.9,7v13.3h4.2v-11.1c4.7,2.5,9.3,5,13.9,7.6V1355.4z"/>
		<linearGradient id="SVGID_22_" gradientUnits="userSpaceOnUse" x1="2557.5347" y1="1349.2137" x2="2589.543" y2="1349.2137">
			<stop  offset="0" style="stop-color:#78FF8A"/>
			<stop  offset="1" style="stop-color:#56A155"/>
		</linearGradient>
		<path fill="url(#SVGID_22_)" d="M2589.5,1329.9c-4.6-2.6-9.2-5.2-13.9-7.6v-35.7h-4.2v33.6c-4.6-2.4-9.2-4.7-13.9-6.9v78.5
			c4.7,2.3,9.3,4.6,13.9,7v13.3h4.2v-11.1c4.7,2.5,9.3,5,13.9,7.6V1329.9z"/>
		<linearGradient id="SVGID_23_" gradientUnits="userSpaceOnUse" x1="2639.3367" y1="1312.031" x2="2671.3447" y2="1312.031">
			<stop  offset="0" style="stop-color:#78FF8A"/>
			<stop  offset="1" style="stop-color:#56A155"/>
		</linearGradient>
		<path fill="url(#SVGID_23_)" d="M2671.3,1292.7c-4.6-2.6-9.2-5.2-13.9-7.6v-35.7h-4.2v33.6c-4.6-2.4-9.2-4.7-13.9-6.9v78.5
			c4.7,2.3,9.3,4.6,13.9,7v13.3h4.2v-11.1c4.7,2.5,9.3,5,13.9,7.6V1292.7z"/>
		<linearGradient id="SVGID_24_" gradientUnits="userSpaceOnUse" x1="2710.5061" y1="1358.1377" x2="2742.5144" y2="1358.1377">
			<stop  offset="0" style="stop-color:#78FF8A"/>
			<stop  offset="1" style="stop-color:#56A155"/>
		</linearGradient>
		<path fill="url(#SVGID_24_)" d="M2742.5,1338.9c-4.6-2.6-9.2-5.2-13.9-7.6v-35.7h-4.2v33.6c-4.6-2.4-9.2-4.7-13.9-6.9v78.5
			c4.7,2.3,9.3,4.6,13.9,7v13.3h4.2v-11.1c4.7,2.5,9.3,5,13.9,7.6V1338.9z"/>
		<linearGradient id="SVGID_25_" gradientUnits="userSpaceOnUse" x1="2769.9985" y1="1426.0219" x2="2802.0066" y2="1426.0219">
			<stop  offset="0" style="stop-color:#78FF8A"/>
			<stop  offset="1" style="stop-color:#56A155"/>
		</linearGradient>
		<path fill="url(#SVGID_25_)" d="M2802,1406.7c-4.6-2.6-9.2-5.2-13.9-7.6v-35.7h-4.2v33.6c-4.6-2.4-9.2-4.7-13.9-6.9v78.5
			c4.7,2.3,9.3,4.6,13.9,7v13.3h4.2v-11.1c4.7,2.5,9.3,5,13.9,7.6V1406.7z"/>
	</g>
	<linearGradient id="SVGID_26_" gradientUnits="userSpaceOnUse" x1="2307.2588" y1="601.2298" x2="2358.7871" y2="601.2298">
		<stop  offset="0" style="stop-color:#FF7886"/>
		<stop  offset="1" style="stop-color:#A1555B"/>
	</linearGradient>
	<path fill="url(#SVGID_26_)" d="M2333,699L2333,699c-14.2,0-25.8-11.5-25.8-25.8V529.3c0-14.2,11.5-25.8,25.8-25.8l0,0
		c14.2,0,25.8,11.5,25.8,25.8v143.9C2358.8,687.4,2347.3,699,2333,699z"/>
	<linearGradient id="SVGID_27_" gradientUnits="userSpaceOnUse" x1="2307.2588" y1="880.8475" x2="2358.7871" y2="880.8475">
		<stop  offset="0" style="stop-color:#FFF875"/>
		<stop  offset="1" style="stop-color:#C99862"/>
	</linearGradient>
	<path fill="url(#SVGID_27_)" d="M2333,978.6L2333,978.6c-14.2,0-25.8-11.5-25.8-25.8V808.9c0-14.2,11.5-25.8,25.8-25.8l0,0
		c14.2,0,25.8,11.5,25.8,25.8v143.9C2358.8,967,2347.3,978.6,2333,978.6z"/>
	<linearGradient id="SVGID_28_" gradientUnits="userSpaceOnUse" x1="2307.2588" y1="1160.4651" x2="2358.7871" y2="1160.4651">
		<stop  offset="0" style="stop-color:#8E75FF"/>
		<stop  offset="1" style="stop-color:#6269C9"/>
	</linearGradient>
	<path fill="url(#SVGID_28_)" d="M2333,1258.2L2333,1258.2c-14.2,0-25.8-11.5-25.8-25.8v-143.9c0-14.2,11.5-25.8,25.8-25.8l0,0
		c14.2,0,25.8,11.5,25.8,25.8v143.9C2358.8,1246.7,2347.3,1258.2,2333,1258.2z"/>
	<g>
		<path fill="#DBAE3E" d="M2273.3,1772.2c-102.6,59.3-102.6,155.3,0,214.6c102.6,59.3,269,59.3,371.7,0s102.6-155.3,0-214.6
			C2542.3,1713,2375.9,1713,2273.3,1772.2z"/>
		<path fill="#FFD0A6" d="M2067.3,1090.5v-10.8v-31.6l-18.7,8.6l-14.6,23.1c-3.6,5.8-3.3,13.2,0.7,18.6l13,12.8L2067.3,1090.5z"/>
		<path fill="#281A10" d="M2284,1801.4l93.4,32.7c22.9,10.3,49-6,49.1-30.7c0-0.1,0-0.2,0-0.3c0,0-0.1-2.1-0.3-3.1
			c-1.1-5.5-5.1-10-10.5-11.8l-72.3-26.6c-19.4-7.2-41.1-4.5-58.2,7.1l0,0l-6.7,5.4C2268.4,1782,2271.6,1797.9,2284,1801.4z"/>
		<linearGradient id="SVGID_29_" gradientUnits="userSpaceOnUse" x1="2378.3032" y1="1536.4113" x2="2614.5435" y2="1536.4113">
			<stop  offset="0" style="stop-color:#2E256B"/>
			<stop  offset="1" style="stop-color:#5A3087"/>
		</linearGradient>
		<path fill="url(#SVGID_29_)" d="M2378.3,1315.4l52.6,233.4l53.5,120.4l63.5,112.3l66.7-28.8l0-0.2l-2.3-7.8
			c-10.8-37.6-23.1-74.8-37-111.4c-13.9-36.6-29.3-72.6-46.2-107.9l-35.3-234.1l-97,20.2L2378.3,1315.4z"/>
		<linearGradient id="SVGID_30_" gradientUnits="userSpaceOnUse" x1="2392.1709" y1="1532.5133" x2="2614.4939" y2="1532.5133">
			<stop  offset="0" style="stop-color:#6A5EBF"/>
			<stop  offset="1" style="stop-color:#6E3AA5"/>
		</linearGradient>
		<path fill="url(#SVGID_30_)" d="M2392.2,1318.7l56.3,222.2l53.4,120.4l63.5,112.3l49.1-21.2l-2.3-7.8
			c-10.8-37.6-23.1-74.8-37-111.4c-13.9-36.6-29.3-72.6-46.2-107.9l-35.3-234.1L2392.2,1318.7z"/>
		<linearGradient id="SVGID_31_" gradientUnits="userSpaceOnUse" x1="2285.002" y1="1553.3102" x2="2422.561" y2="1553.3102">
			<stop  offset="0" style="stop-color:#2E256B"/>
			<stop  offset="1" style="stop-color:#5A3087"/>
		</linearGradient>
		<path fill="url(#SVGID_31_)" d="M2285,1330.7l13.7,251.8l45.3,207.3l78.5,1.4v-0.4l-0.6-21.7c-1-33.2-4.1-66.2-9.4-98.9
			c-5.3-32.7-12.7-65-22.3-96.8l22.4-255.1l0.2-3L2285,1330.7z"/>
		<linearGradient id="SVGID_32_" gradientUnits="userSpaceOnUse" x1="2309.4744" y1="1553.7389" x2="2426.4646" y2="1553.7389">
			<stop  offset="0" style="stop-color:#6A5EBF"/>
			<stop  offset="1" style="stop-color:#6E3AA5"/>
		</linearGradient>
		<path fill="url(#SVGID_32_)" d="M2309.5,1330.7l13.8,251.8l45.3,207.3l54,0.9l-0.6-21.7c-1-33.2-4.1-66.2-9.4-98.9
			c-5.3-32.7-12.7-65-22.3-96.8l36.2-256.8L2309.5,1330.7z"/>
		<linearGradient id="SVGID_33_" gradientUnits="userSpaceOnUse" x1="2265.4529" y1="1161.985" x2="2518.8889" y2="1161.985">
			<stop  offset="0" style="stop-color:#2E256B"/>
			<stop  offset="1" style="stop-color:#5A3087"/>
		</linearGradient>
		<path fill="url(#SVGID_33_)" d="M2355.2,975.5c-48.1,8.3-83.7,55.6-84.6,104.4c-1.5,82.8-11.1,209.4,0.5,288.9
			c1.6,11.2,10.8,19.8,22.1,20.6l40.5,2.8c59.6,4.1,93.2-30.4,149.4-50.8v0c22.1-8,36.2-29.7,34.6-53.2l-22.8-141.8l24-156.7
			c0.4-38-35.3-66.1-72.2-56.6L2355.2,975.5z"/>
		<linearGradient id="SVGID_34_" gradientUnits="userSpaceOnUse" x1="2045.4333" y1="1133.2543" x2="2347.2056" y2="1133.2543">
			<stop  offset="0" style="stop-color:#2E256B"/>
			<stop  offset="1" style="stop-color:#5A3087"/>
		</linearGradient>
		<path fill="url(#SVGID_34_)" d="M2271.7,1043l-82.8,141.5l60.6-5.8l-179.7-92.4c-7-3.6-15.5-1.6-20.3,4.6l-0.5,0.7
			c-5.8,7.7-4.5,18.7,3.1,24.8l141.2,113.3v0c15.3,19.7,45.5,18.2,58.8-2.9l1.8-2.9l87.1-138.9c12-19.2,6-44.4-13.3-56.1l0,0
			C2308.3,1017.1,2283.2,1023.5,2271.7,1043z"/>
		<g>
			<path fill="#FFD0A6" d="M2441.3,937.4l-11.3-27.6l16.4-47.1c14.7-25.2,12.6-56.9-5.5-79.9l0,0c-16.8-21.4-44.3-31.4-71-25.8
				l-32.1,6.7c-13.4,2.8-21.9,16.1-18.7,29.5l0.1,0.4c1.4,5.8,1.7,11.7,0.9,17.5l-3.6,27.1h0c-3,9.5-3.5,19.5-1.6,29.3l2.3,11.4
				c6,18.5,25.8,28.7,44.4,22.8l0,0l5.9,70.4L2441.3,937.4z"/>
			<path fill="#89603E" d="M2320.3,807.6l22.3,18.9c0,0,3.6,13.9,1.3,29.5c-2.3,15.6,27.9,36.2,27.9,36.2l17.4,22.2
				c3.7,4.7,9.5,7.3,15.5,6.8l20.4-1.6c11.1-0.9,20.8-8,24.9-18.4c3.7-9.5,7.6-20.4,8.3-26c0.7-5.7,5.8-17.3,10.5-27.2
				c6.2-12.9,7.9-27.5,4.6-41.4c-2-8.3-4.9-16.9-9.2-22.7c-10.6-14.5-12.9-29.9-40.9-36.4c-28-6.6-72.8-8.6-84.2-2.1
				c-11.4,6.5-9.8,10.6-20.3,27C2308.2,788.7,2320.3,807.6,2320.3,807.6z"/>
		</g>
		<polygon fill="#7B5BAA" points="2446.4,936.2 2435.2,922.6 2365.6,950.9 2363.7,973.9 		"/>
		<path fill="#FFD0A6" d="M2345.1,870.4l6.9-10c2.8-4,9.5-4.9,13.7-1.9l0,0c2.5,1.8,3.5,4.6,2.6,7.2l-9.2,26.9l-20.3-8.7
			L2345.1,870.4z"/>
		<path fill="#281A10" d="M2422.6,1754.6l-24.8,4.2l-61.4-5.8l10.1,60.3l63.3,3.9c9.6,0.6,17.5-7.5,16.7-17.1L2422.6,1754.6z"/>
		<path fill="#C97453" d="M2547.8,1781.5l-1.1,18.4c-0.6,9.7-8.6,17.3-18.3,17.3h-24.7c-7.1,0-13.7,3.5-17.6,9.4l0,0
			c-8.2,12.3-1.7,29,12.7,32.5l11,2.6c20.6,5,42.1,4.8,62.6-0.4l56.8-14.5c18.5-4.7,27.1-26,17.1-42.2l-31.7-51.9L2547.8,1781.5z"/>
		<path fill="#281A10" d="M2547.8,1781.5l-1.1,18.4c-0.6,9.7-8.6,17.3-18.3,17.3h-24.7c-7.1,0-13.7,3.5-17.6,9.4l0,0
			c-8.2,12.3-1.7,29,12.7,32.5l11,2.6c20.6,5,42.1,4.8,62.6-0.4l56.8-14.5c18.5-4.7,27.1-26,17.1-42.2l-31.7-51.9L2547.8,1781.5z"/>
		<path fill="#FFD0A6" d="M2080.1,1061.9l1.3-0.9c3.6-2.5,8.5-2.5,12.1,0l0,0c1.5,1,1.6,3.2,0.3,4.4l-7.7,7.1
			c-0.3,0.3-0.7,0.5-1.2,0.6l-20.8,5.8c-1.4,0.4-2.8-0.3-3.4-1.6l-3-6.9c-0.7-1.6,0.3-3.5,2-3.9l19.3-4.2
			C2079.4,1062.3,2079.7,1062.1,2080.1,1061.9z"/>
	</g>
</g>
</svg>
